<?xml version="1.0" encoding="iso-8859-1"?>
<!-- Uploaded to: SVG Repo, www.svgrepo.com, Generator: SVG Repo Mixer Tools -->
<svg height="800px" width="800px" version="1.1" id="Layer_1" xmlns="http://www.w3.org/2000/svg" xmlns:xlink="http://www.w3.org/1999/xlink" 
	 viewBox="0 0 512 512" xml:space="preserve">
<path style="fill:#7CD8A4;" d="M256.158,373.012c0,0,38.204,22.732,71.091,10.967c32.888-11.764,48.005-53.571,48.005-53.571
	s-38.204-22.732-71.091-10.967C271.275,331.205,256.158,373.012,256.158,373.012z"/>
<path style="opacity:0.2;fill:#328777;enable-background:new    ;" d="M327.249,364.618c-24.041,8.6-50.904-1.228-63.626-7.141
	c-5.032,8.811-7.465,15.534-7.465,15.534s38.204,22.732,71.091,10.967c32.888-11.764,48.005-53.571,48.005-53.571
	s-2.784-1.65-7.465-3.826C360.271,339.745,346.95,357.571,327.249,364.618z"/>
<path style="fill:#7CD8A4;" d="M136.745,242.402c0,0,38.204,22.732,71.091,10.967c32.888-11.764,48.005-53.571,48.005-53.571
	s-38.204-22.732-71.091-10.967C151.862,200.597,136.745,242.402,136.745,242.402z"/>
<path style="opacity:0.24;fill:#328777;enable-background:new    ;" d="M207.837,234.609c-24.086,8.616-51.003-1.265-63.696-7.174
	c-4.984,8.75-7.395,15.411-7.395,15.411s38.204,22.732,71.091,10.967s48.005-53.571,48.005-53.571s-2.756-1.634-7.395-3.793
	C240.942,209.624,227.599,227.539,207.837,234.609z"/>
<g>
	<path style="fill:#C70024;" d="M76.592,279.382L76.592,279.382c0,9.055-16.463,28.521-16.463,28.521l0,0
		c0,0-16.463-19.466-16.463-28.521l0,0V255.46h32.926V279.382z"/>
	<path style="fill:#C70024;" d="M468.332,431.875L468.332,431.875c0,9.055-16.463,28.521-16.463,28.521l0,0
		c0,0-16.463-19.466-16.463-28.521l0,0v-23.009h32.925v23.009H468.332z"/>
	<path style="fill:#C70024;" d="M468.332,202.119L468.332,202.119c0,9.055-16.463,28.521-16.463,28.521l0,0
		c0,0-16.463-19.466-16.463-28.521l0,0v-27.164h32.925v27.164H468.332z"/>
</g>
<g>
	<path style="fill:#FF3F62;" d="M108.091,302.314v-70.156c0-26.378-21.583-47.961-47.961-47.961l0,0
		c-26.378,0-47.961,21.583-47.961,47.961v70.156l47.961-36.837L108.091,302.314z"/>
	<path style="fill:#FF3F62;" d="M403.908,454.807v-70.156c0-26.378,21.583-47.961,47.961-47.961l0,0
		c26.378,0,47.961,21.583,47.961,47.961v70.156l-47.961-36.837L403.908,454.807z"/>
	<path style="fill:#FF3F62;" d="M403.908,225.05v-70.156c0-26.378,21.583-47.961,47.961-47.961l0,0
		c26.378,0,47.961,21.583,47.961,47.961v70.156l-47.961-36.837L403.908,225.05z"/>
</g>
<g style="opacity:0.32;">
	<path style="fill:#C70024;" d="M452.312,336.69L452.312,336.69c-13.053,0-24.927,5.291-33.597,13.826
		c5.422-2.139,11.312-3.327,17.47-3.327l0,0c26.378,0,47.961,21.583,47.961,47.961v47.272l16.128,12.387v-70.156
		C500.273,358.273,478.69,336.69,452.312,336.69z"/>
</g>
<g style="opacity:0.32;">
	<path style="fill:#C70024;" d="M452.312,106.933L452.312,106.933c-13.053,0-24.927,5.291-33.597,13.826
		c5.422-2.139,11.312-3.327,17.47-3.327l0,0c26.378,0,47.961,21.583,47.961,47.961v47.272l16.128,12.387v-70.156
		C500.273,128.516,478.69,106.933,452.312,106.933z"/>
</g>
<g style="opacity:0.32;">
	<path style="fill:#C70024;" d="M60.13,184.197L60.13,184.197c-13.053,0-24.927,5.29-33.597,13.826
		c5.422-2.139,11.312-3.327,17.47-3.327l0,0c26.378,0,47.961,21.583,47.961,47.961v47.272l16.128,12.387v-70.156
		C108.091,205.779,86.508,184.197,60.13,184.197z"/>
</g>
<path d="M396.284,154.894v70.156c0,2.903,1.649,5.556,4.255,6.84c2.604,1.283,5.711,0.976,8.015-0.792l22.607-17.364
	c4.418,9.046,11.943,18.347,14.888,21.829c1.449,1.714,3.578,2.701,5.822,2.701s4.374-0.988,5.822-2.701
	c2.945-3.482,10.47-12.784,14.889-21.829l22.607,17.364c1.358,1.042,2.995,1.578,4.645,1.578c1.148,0,2.302-0.259,3.369-0.785
	c2.606-1.284,4.255-3.935,4.255-6.84v-70.156c0-28.116-20.987-51.406-48.115-55.07C456.392,44.282,410.277,0,354.014,0
	c-58.162,0-105.481,47.319-105.481,105.481v23.216c-18.444-30.782-52.127-51.433-90.548-51.433
	c-56.264,0-102.379,44.282-105.328,99.825c-27.127,3.663-48.114,26.955-48.114,55.07v70.156c0,2.903,1.649,5.556,4.255,6.84
	c2.604,1.282,5.711,0.976,8.015-0.792l22.607-17.364c4.418,9.046,11.943,18.347,14.888,21.829c1.449,1.714,3.579,2.701,5.822,2.701
	s4.374-0.988,5.822-2.701c2.945-3.482,10.47-12.784,14.889-21.829l22.607,17.364c1.358,1.042,2.995,1.578,4.645,1.578
	c1.148,0,2.302-0.259,3.369-0.785c2.606-1.284,4.255-3.935,4.255-6.84V232.16c0-28.001-20.815-51.22-47.782-55.028
	c2.908-47.151,42.183-84.62,90.05-84.62c49.753,0,90.232,40.477,90.232,90.231v4.781c-14.778-6.382-41.389-14.69-66.036-5.872
	c-35.856,12.826-51.939,56.313-52.606,58.157c-1.244,3.439,0.129,7.276,3.271,9.146c1.326,0.788,26.327,15.423,54.381,15.423
	c7.638,0,15.503-1.085,23.177-3.831c16.792-6.006,29.246-18.736,37.812-30.764v244.093c0,0.752,0.113,1.476,0.316,2.162v28.336
	c0,4.212,3.413,7.625,7.625,7.625c4.212,0,7.625-3.413,7.625-7.625V396.613v-11.331c10.176,4.396,25.959,9.705,42.859,9.705
	c7.638,0,15.502-1.085,23.176-3.831c35.857-12.826,51.94-56.312,52.607-58.156c1.244-3.439-0.129-7.276-3.271-9.146
	c-1.686-1.003-41.703-24.423-77.559-11.594c-16.791,6.006-29.245,18.735-37.811,30.764v-7.789c0-49.753,40.477-90.231,90.231-90.231
	c47.869,0,87.143,37.469,90.051,84.617c-26.966,3.807-47.781,27.027-47.781,55.028v70.156c0,2.903,1.649,5.556,4.255,6.84
	c2.604,1.283,5.711,0.976,8.015-0.792l22.607-17.364c4.418,9.046,11.943,18.347,14.888,21.829c1.449,1.714,3.578,2.701,5.822,2.701
	s4.374-0.988,5.822-2.701c2.945-3.482,10.47-12.784,14.889-21.829l22.607,17.364c1.358,1.042,2.995,1.578,4.645,1.578
	c1.148,0,2.302-0.259,3.369-0.785c2.606-1.284,4.255-3.935,4.255-6.84v-70.156c0-28.116-20.987-51.406-48.115-55.07
	c-2.95-55.542-49.065-99.824-105.329-99.824c-38.199,0-71.72,20.412-90.231,50.899V105.481c0-49.753,40.477-90.231,90.231-90.231
	c47.869,0,87.143,37.469,90.051,84.617C417.098,103.674,396.284,126.894,396.284,154.894z M60.128,295.514
	c-3.965-5.494-7.142-10.818-8.327-14.025l8.329-6.398l8.329,6.397C67.269,284.693,64.091,290.016,60.128,295.514z M100.466,232.158
	v54.685l-35.693-27.414c-1.369-1.051-3.007-1.578-4.644-1.578s-3.276,0.527-4.644,1.578l-35.693,27.414v-54.685
	c0-22.242,18.095-40.337,40.336-40.337S100.466,209.916,100.466,232.158z M451.866,448.007c-3.965-5.494-7.141-10.817-8.327-14.025
	l8.329-6.398l8.329,6.397C459.009,437.186,455.831,442.509,451.866,448.007z M492.206,384.651v54.685l-35.693-27.414
	c-1.369-1.051-3.007-1.578-4.644-1.578s-3.276,0.527-4.644,1.578l-35.692,27.414v-54.685c0-22.242,18.095-40.337,40.336-40.337
	S492.206,362.409,492.206,384.651z M205.268,246.19c-21.944,7.85-47.433-1.955-58.728-7.303
	c5.315-11.293,18.745-34.995,40.778-42.877c16.622-5.945,35.275-1.761,48.254,2.942l-41.847,14.97
	c-3.964,1.418-6.03,5.783-4.61,9.747c1.115,3.116,4.048,5.059,7.179,5.059c0.853,0,1.719-0.144,2.568-0.447l41.89-14.985
	C233.723,225.154,221.969,240.215,205.268,246.19z M306.73,326.619c21.945-7.848,47.441,1.958,58.729,7.303
	c-5.315,11.293-18.747,34.995-40.779,42.877c-16.623,5.945-35.273,1.761-48.253-2.942l41.846-14.969
	c3.964-1.418,6.03-5.783,4.61-9.747c-1.419-3.965-5.783-6.03-9.747-4.61L271.292,359.5
	C278.343,347.63,290.109,332.565,306.73,326.619z M451.866,218.25c-3.965-5.494-7.141-10.817-8.327-14.025l8.329-6.398l8.329,6.397
	C459.009,207.429,455.831,212.752,451.866,218.25z M451.868,114.558c22.242,0,40.337,18.096,40.337,40.338v54.685l-35.693-27.414
	c-1.369-1.051-3.007-1.578-4.644-1.578s-3.276,0.527-4.644,1.578l-35.692,27.414v-54.685
	C411.533,132.653,429.628,114.558,451.868,114.558z"/>
</svg>