<?xml version="1.0" encoding="iso-8859-1"?>
<!-- Uploaded to: SVG Repo, www.svgrepo.com, Generator: SVG Repo Mixer Tools -->
<svg version="1.1" id="Layer_1" xmlns="http://www.w3.org/2000/svg" xmlns:xlink="http://www.w3.org/1999/xlink" 
	 viewBox="0 0 512 512" xml:space="preserve">
<path style="fill:#FFDAAA;" d="M288.676,254.275l17.775,223.452c1.356,14.724-10.476,27.414-25.56,27.414h-53.645
	c-15.085,0-26.916-12.689-25.56-27.414l17.775-223.452L288.676,254.275L288.676,254.275z"/>
<polygon style="fill:#FFC477;" points="288.68,254.275 219.465,254.275 215.866,299.526 292.237,299.047 "/>
<path style="fill:#FFDAAA;" d="M319.405,188.881v72.467c0,12.029-9.751,21.778-21.778,21.778c-12.027,0-21.778-9.751-21.778-21.778
	c0,12.029-9.751,21.778-21.778,21.778c-12.027,0-21.778-9.751-21.778-21.778c0,12.029-9.751,21.778-21.778,21.778
	s-21.778-9.751-21.778-21.778v-72.467H319.405z"/>
<path style="fill:#FF3F62;" d="M88.745,209.181c-20.382,0-35.678-18.602-31.783-38.609C74.963,78.136,156.368,8.364,254.069,8.364
	s179.107,69.772,197.107,162.206c3.896,20.006-11.401,38.609-31.783,38.609H88.745V209.181z"/>
<g>
	<path style="fill:#FFA5B5;" d="M291.305,83.716c19.546-19.546,20.516-50.617,2.938-71.324c-12.991-2.64-26.436-4.026-40.205-4.026
		c-13.797,0-27.266,1.393-40.28,4.043c-17.381,20.729-16.459,51.838,3.012,71.309C237.351,104.299,270.723,104.299,291.305,83.716z"
		/>
	<path style="fill:#FFA5B5;" d="M86.953,209.181c-23.048-23.048-23.048-60.416,0-83.466s60.417-23.048,83.466,0
		s23.048,60.417,0,83.466H86.953z"/>
	<circle style="fill:#FFA5B5;" cx="351.182" cy="134.819" r="29.978"/>
</g>
<rect x="188.491" y="209.177" style="fill:#FFC477;" width="130.922" height="18.165"/>
<path style="opacity:0.16;fill:#830018;enable-background:new    ;" d="M452.547,170.571
	C438.299,97.407,384.324,38.452,313.991,17.046c44.548,29.128,76.824,75.466,87.362,129.58
	c3.896,20.006-11.401,38.609-31.783,38.609H58.844c3.679,13.577,16.056,23.945,31.27,23.945h330.649
	C441.147,209.181,456.443,190.577,452.547,170.571z"/>
<path d="M270.167,447.184v33.539c0,4.205,3.407,7.612,7.612,7.612s7.612-3.407,7.612-7.612v-33.539c0-4.205-3.407-7.612-7.612-7.612
	S270.167,442.979,270.167,447.184z"/>
<path d="M460.579,168.363C441.581,70.807,355.542,0,256.001,0C156.457,0,70.419,70.807,51.421,168.363
	c-2.296,11.786,0.765,23.858,8.398,33.121c7.623,9.251,18.869,14.557,30.855,14.557h92.377v44.554
	c0,16.206,13.185,29.391,29.391,29.391c0.253,0,0.502-0.013,0.753-0.019l-17.159,186.31c-0.832,9.04,2.223,18.098,8.382,24.85
	C210.72,508.038,219.746,512,229.177,512h53.645c9.432,0,18.456-3.962,24.759-10.872c6.159-6.753,9.214-15.81,8.382-24.851
	l-17.158-186.31c0.251,0.006,0.5,0.019,0.753,0.019c16.207,0,29.392-13.185,29.392-29.391v-44.554h92.376
	c11.987,0,23.233-5.306,30.855-14.556C459.813,192.222,462.875,180.149,460.579,168.363z M289.281,18.114
	c16.167,17.671,15.706,45.2-1.396,62.3c-17.584,17.582-46.191,17.58-63.771,0c-8.517-8.517-13.207-19.84-13.207-31.884
	c0-11.366,4.181-22.087,11.807-30.416c10.847-1.897,21.972-2.89,33.286-2.89C267.314,15.225,278.436,16.217,289.281,18.114z
	 M86.76,200.503c-0.05-0.053-0.093-0.109-0.144-0.159c-20.044-20.043-20.044-52.656,0-72.699c20.043-20.044,52.658-20.044,72.699,0
	c20.044,20.043,20.044,52.656,0,72.699c-0.152,0.152-0.29,0.312-0.427,0.473H90.675C89.352,200.816,88.044,200.707,86.76,200.503z
	 M300.801,477.672c0.448,4.859-1.14,9.545-4.469,13.195c-3.424,3.754-8.349,5.908-13.51,5.908h-53.645
	c-5.161,0-10.086-2.154-13.51-5.908c-3.329-3.65-4.918-8.336-4.469-13.195l17.754-192.777c1.934-1.317,3.702-2.858,5.269-4.587
	c5.381,5.94,13.152,9.677,21.779,9.677c8.627,0,16.397-3.737,21.778-9.676c1.566,1.728,3.335,3.269,5.269,4.587L300.801,477.672z
	 M313.724,260.595c0,7.811-6.356,14.166-14.167,14.166s-14.166-6.355-14.166-14.166c0-4.205-3.407-7.612-7.612-7.612
	s-7.612,3.407-7.612,7.612c0,7.811-6.355,14.166-14.166,14.166c-7.811,0-14.167-6.355-14.167-14.166
	c0-4.205-3.407-7.612-7.612-7.612c-4.205,0-7.612,3.407-7.612,7.612c0,7.811-6.355,14.166-14.166,14.166
	s-14.166-6.355-14.166-14.166v-44.554h115.448L313.724,260.595L313.724,260.595z M440.431,191.802
	c-4.72,5.729-11.684,9.014-19.106,9.014H178.502c17.159-25.865,14.356-61.161-8.42-83.938
	c-20.783-20.781-51.982-24.921-76.935-12.455c24.96-38.959,63.397-68.027,108.111-81.27c-3.645,7.851-5.573,16.465-5.573,25.378
	c0,16.112,6.275,31.258,17.666,42.65c11.761,11.76,27.203,17.639,42.65,17.637c15.444-0.001,30.893-5.881,42.65-17.637
	c18.366-18.367,22.388-45.73,12.067-68.037c67.629,20.021,120.916,76.236,134.918,148.129
	C447.059,178.579,445.162,186.061,440.431,191.802z"/>
<path d="M256.001,304.107c-4.205,0-7.612,3.407-7.612,7.612v33.539c0,4.205,3.407,7.612,7.612,7.612
	c4.205,0,7.612-3.407,7.612-7.612V311.72C263.613,307.516,260.205,304.107,256.001,304.107z"/>
<path d="M241.81,378.155c-4.205,0-7.612,3.407-7.612,7.612v33.539c0,4.205,3.407,7.612,7.612,7.612c4.205,0,7.612-3.407,7.612-7.612
	v-33.539C249.423,381.563,246.015,378.155,241.81,378.155z"/>
<path d="M353.116,96.476c-20.728,0-37.591,16.863-37.591,37.591c0,15.296,9.19,28.478,22.333,34.341
	c-0.43,0.954-0.675,2.01-0.675,3.125c0,4.205,3.413,7.612,7.617,7.612c4.168,0,7.549-3.351,7.607-7.507
	c0.236,0.004,0.471,0.018,0.708,0.018c20.727,0,37.59-16.863,37.59-37.59C390.705,113.338,373.842,96.476,353.116,96.476z
	 M353.116,156.431c-12.332,0-22.366-10.033-22.366-22.365c0-12.332,10.034-22.366,22.366-22.366
	c12.332,0,22.365,10.034,22.365,22.366C375.481,146.398,365.449,156.431,353.116,156.431z"/>
</svg>