<svg width="523" height="338" viewBox="0 0 523 338" fill="none" xmlns="http://www.w3.org/2000/svg">
<g clip-path="url(#clip0_1_2)">
<g clip-path="url(#clip1_1_2)">
<mask id="mask0_1_2" style="mask-type:luminance" maskUnits="userSpaceOnUse" x="-71" y="-111" width="666" height="449">
<path d="M595 -111H-71V338H595V-111Z" fill="white"/>
</mask>
<g mask="url(#mask0_1_2)">
<mask id="mask1_1_2" style="mask-type:luminance" maskUnits="userSpaceOnUse" x="81" y="9" width="336" height="336">
<path d="M416.028 9.98056H81.7809V344.236H416.028V9.98056Z" fill="white"/>
</mask>
<g mask="url(#mask1_1_2)">
<mask id="mask2_1_2" style="mask-type:luminance" maskUnits="userSpaceOnUse" x="81" y="11" width="336" height="336">
<path d="M416.028 11.8514H81.7809V346.107H416.028V11.8514Z" fill="white"/>
</mask>
<g mask="url(#mask2_1_2)">
<mask id="mask3_1_2" style="mask-type:luminance" maskUnits="userSpaceOnUse" x="81" y="21" width="336" height="336">
<path d="M416.028 21.8791H81.7809V356.135H416.028V21.8791Z" fill="white"/>
</mask>
<g mask="url(#mask3_1_2)">
<path d="M362.126 163.328H337.34V211.148C337.145 211.344 337.032 211.456 336.836 211.653H306.536V197.772C306.536 192.445 302.442 187.861 297.122 187.61C291.44 187.342 286.75 191.869 286.75 197.492V212.14C286.75 222.805 295.396 231.452 306.061 231.452H332.897C332.269 232.817 331.581 234.158 330.826 235.465L275.07 332.04L213.939 285.837H229.377C240.043 285.837 248.689 277.191 248.689 266.525V252.157C248.689 246.831 244.594 242.246 239.274 241.996C233.592 241.729 228.902 246.256 228.902 251.878V266.038H189.406H189.391C188.366 266.04 187.364 265.752 186.546 265.135L183.786 263.048C178.381 258.964 175.204 252.58 175.204 245.804V214.804H150.418L150.486 258.293C150.496 265.018 153.634 271.356 158.978 275.438L257.488 350.71L292.636 351.184L355.629 242.073C359.901 234.675 362.148 226.28 362.145 217.737L362.126 163.328Z" fill="#AA8B65"/>
<path d="M205.644 58.5829C204.2 40.8069 189.327 26.8286 171.178 26.8286C153.03 26.8286 138.156 40.8075 136.712 58.5835C107.72 71.7854 87.4375 101.068 87.4375 134.857V225.381H254.917V134.857C254.917 101.068 234.635 71.7854 205.644 58.5829Z" fill="#328777"/>
<path d="M205.059 58.5829C203.613 40.8069 188.741 26.8286 170.592 26.8286C159.892 26.8286 150.336 31.6891 143.993 39.3196C146.39 38.7939 148.875 38.5083 151.43 38.5083C169.578 38.5083 184.452 52.4871 185.896 70.2632C214.887 83.465 235.169 112.747 235.169 146.536V225.381H254.331V134.857C254.332 101.068 234.05 71.7854 205.059 58.5829Z" fill="#266659"/>
<path d="M349.862 27.3388C327.576 27.3388 308.006 39.5503 297.506 57.6107C295.86 57.0806 294.106 56.7907 292.284 56.7907C282.889 56.7907 275.271 64.4068 275.271 73.8028C275.271 82.1985 281.354 89.1679 289.351 90.558V169.934H410.371V87.8509C410.371 54.5694 383.142 27.3388 349.862 27.3388Z" fill="#328777"/>
<path d="M349.862 27.3388C342.03 27.3388 334.537 28.8523 327.652 31.5912C359.992 32.6844 386.109 59.4697 386.109 92.064V169.934H410.371V87.8509C410.371 54.5694 383.142 27.3388 349.862 27.3388Z" fill="#266659"/>
<path opacity="0.5" d="M362.148 169.934H337.342V181.614H362.148V169.934Z" fill="#564531"/>
<path opacity="0.5" d="M175.22 225.383H150.415V237.063H175.22V225.383Z" fill="#564531"/>
<path d="M349.862 22.3892C327.876 22.3892 307.232 33.6572 295.143 52.0263C294.197 51.9028 293.242 51.8405 292.283 51.8405C280.173 51.8405 270.322 61.6923 270.322 73.8028C270.322 83.059 276.041 91.1142 284.401 94.3077V169.934C284.401 172.668 286.617 174.884 289.351 174.884H332.391V206.702H311.485V197.772C311.485 189.673 305.278 183.039 297.353 182.666C293.25 182.473 289.363 183.924 286.398 186.752C283.475 189.54 281.799 193.455 281.799 197.492V212.14C281.799 225.518 292.682 236.402 306.06 236.402H324.57L273.583 324.713L228.694 290.786H229.375C242.753 290.786 253.636 279.903 253.636 266.525V252.157C253.636 244.059 247.428 237.425 239.504 237.052C235.411 236.858 231.512 238.31 228.548 241.138C225.626 243.925 223.95 247.84 223.95 251.877V261.089H189.405H189.401L186.77 259.099C182.627 255.968 180.153 250.998 180.153 245.805V230.332H254.918C257.652 230.332 259.868 228.115 259.868 225.381V134.857C259.868 101.154 240.477 70.2239 210.235 55.2834C208.869 46.5304 204.604 38.4946 198.04 32.4094C190.712 25.6195 181.174 21.8791 171.178 21.8791C161.183 21.8791 151.642 25.6195 144.316 32.41C137.752 38.4945 133.486 46.531 132.121 55.284C101.878 70.2233 82.4881 101.154 82.4881 134.857V225.381C82.4881 228.115 84.7037 230.332 87.4375 230.332H145.473L145.537 258.301C145.547 266.51 149.449 274.388 155.972 279.372L254.482 354.644C255.327 355.289 256.358 355.646 257.42 355.66L292.568 356.135C292.59 356.135 292.614 356.135 292.636 356.135C294.402 356.135 296.036 355.192 296.922 353.661L359.916 244.548C364.616 236.407 367.098 227.135 367.095 217.735L367.078 174.883H410.372C413.106 174.883 415.322 172.667 415.322 169.934V87.8502C415.321 51.755 385.956 22.3892 349.862 22.3892ZM92.3876 134.857C92.3876 104.088 110.59 75.9168 138.762 63.0879C140.396 62.3439 141.498 60.773 141.644 58.9839C142.885 43.7285 155.858 31.7783 171.179 31.7783C186.499 31.7783 199.471 43.7285 200.713 58.9845C200.858 60.7743 201.961 62.3433 203.595 63.0885C231.766 75.9174 249.97 104.089 249.97 134.858V220.432H233.189V179.485C233.189 176.752 230.974 174.535 228.24 174.535C225.505 174.535 223.29 176.752 223.29 179.485V220.432H209.538V145.834C209.538 143.1 207.323 140.884 204.588 140.884C201.855 140.884 199.639 143.1 199.639 145.834V220.432H185.888V147.382C185.888 144.649 183.672 142.432 180.938 142.432C178.204 142.432 175.988 144.649 175.988 147.382V220.431H162.237V165.032C162.237 162.299 160.022 160.082 157.287 160.082C154.553 160.082 152.338 162.299 152.338 165.032V220.431H138.585V126.938C138.585 124.204 136.369 121.987 133.635 121.987C130.902 121.987 128.686 124.204 128.686 126.938V220.432H114.934V188.926C114.934 186.192 112.719 183.976 109.985 183.976C107.251 183.976 105.035 186.192 105.035 188.926V220.432H92.3876V134.857ZM357.196 217.738C357.198 225.403 355.175 232.962 351.343 239.599L289.801 346.197L259.191 345.783L161.983 271.506C157.89 268.378 155.443 263.437 155.436 258.283L155.378 232.953H170.254V245.805C170.254 254.084 174.197 262.006 180.8 266.997L183.562 269.084C185.211 270.33 187.222 270.988 189.385 270.988H189.405H228.9C231.633 270.988 233.849 268.771 233.849 266.038V251.877C233.849 250.512 234.393 249.241 235.381 248.299C236.368 247.357 237.669 246.877 239.038 246.939C241.629 247.061 243.736 249.402 243.736 252.156V266.524C243.736 274.444 237.294 280.886 229.375 280.886H213.936C211.809 280.886 209.92 282.245 209.244 284.262C208.568 286.278 209.256 288.502 210.952 289.784L272.083 335.988C273.217 336.843 274.662 337.172 276.052 336.889C277.443 336.607 278.646 335.743 279.355 334.513L335.112 237.937C335.927 236.524 336.694 235.036 337.393 233.515C338.097 231.983 337.973 230.198 337.062 228.778C336.152 227.359 334.582 226.5 332.895 226.5H306.059C298.14 226.5 291.697 220.058 291.697 212.138V197.49C291.697 196.125 292.241 194.854 293.23 193.913C294.216 192.971 295.516 192.492 296.886 192.553C299.477 192.675 301.585 195.015 301.585 197.77V211.651C301.585 214.385 303.8 216.601 306.535 216.601H336.835C338.149 216.601 339.409 216.078 340.337 215.148L340.836 214.65C341.766 213.721 342.289 212.461 342.289 211.146V174.882H357.178L357.196 217.738ZM405.422 164.985H396.501V136.207C396.501 133.474 394.286 131.257 391.552 131.257C388.818 131.257 386.602 133.474 386.602 136.207V164.985H376.962V127.016C376.962 124.283 374.746 122.066 372.012 122.066C369.278 122.066 367.062 124.283 367.062 127.016V164.985H362.259C362.214 164.983 362.17 164.978 362.126 164.978H357.422V117.779C357.422 115.045 355.206 112.828 352.472 112.828C349.738 112.828 347.522 115.045 347.522 117.779V164.978H337.883V136.207C337.883 133.474 335.667 131.257 332.933 131.257C330.199 131.257 327.983 133.474 327.983 136.207V164.985H318.343V117.779C318.343 115.045 316.127 112.828 313.394 112.828C310.659 112.828 308.444 115.045 308.444 117.779V164.985H294.302V90.5586C294.302 88.1521 292.571 86.0942 290.2 85.682C284.418 84.6767 280.221 79.6809 280.221 73.8028C280.221 67.1507 285.632 61.7403 292.283 61.7403C293.543 61.7403 294.79 61.9355 295.987 62.3221C298.203 63.0374 300.614 62.1101 301.784 60.0983C311.757 42.9446 330.179 32.2884 349.862 32.2884C380.498 32.2884 405.422 57.2141 405.422 87.8502V164.985Z" fill="black"/>
<mask id="mask4_1_2" style="mask-type:luminance" maskUnits="userSpaceOnUse" x="305" y="239" width="118" height="118">
<path d="M422.713 239.145H305.727V356.135H422.713V239.145Z" fill="white"/>
</mask>
<g mask="url(#mask4_1_2)">
<path d="M356.298 284.762L347.085 287.728C345.1 288.367 342.973 287.277 342.333 285.291L335.728 264.774C335.089 262.789 336.18 260.662 338.165 260.023L347.378 257.057C349.363 256.417 351.49 257.509 352.13 259.494L358.735 280.01C359.374 281.995 358.283 284.123 356.298 284.762Z" fill="#FFCD00"/>
<path opacity="0.13" d="M358.735 280.008L352.13 259.491C351.509 257.564 349.486 256.484 347.552 257.008L353.991 277.008C354.631 278.993 353.539 281.12 351.554 281.76L342.341 284.726C342.283 284.744 342.226 284.756 342.167 284.772L342.333 285.289C342.973 287.274 345.1 288.366 347.085 287.726L356.298 284.76C358.283 284.121 359.374 281.993 358.735 280.008Z" fill="#663A00"/>
<path d="M371.779 279.404L382.323 281.992C384.348 282.49 386.393 281.251 386.89 279.225L392.503 256.361C393 254.336 391.761 252.29 389.736 251.793L379.192 249.205C377.167 248.708 375.122 249.946 374.625 251.972L369.012 274.836C368.515 276.862 369.754 278.907 371.779 279.404Z" fill="#FFCD00"/>
<path opacity="0.13" d="M389.736 251.705L389.138 251.558L383.634 273.979C383.137 276.004 381.092 277.243 379.066 276.746L369.121 274.304L369.012 274.749C368.514 276.774 369.754 278.819 371.779 279.316L382.322 281.905C384.348 282.402 386.393 281.163 386.89 279.138L392.503 256.273C393.001 254.247 391.762 252.202 389.736 251.705Z" fill="#663A00"/>
<path d="M366.652 354.042C366.652 354.042 370.954 325.782 389.647 300.099C389.647 300.099 382.484 328.227 376.556 354.042H366.652Z" fill="#3EAC92"/>
<path opacity="0.19" d="M386.135 305.207C383.806 314.477 374.008 334.894 369.611 354.042H376.556C382.485 328.227 389.648 300.099 389.648 300.099C388.414 301.794 387.245 303.499 386.135 305.207Z" fill="#266659"/>
<path d="M365.482 354.042C365.482 354.042 361.181 325.782 342.487 300.099C342.487 300.099 349.651 328.227 355.579 354.042H365.482Z" fill="#3EAC92"/>
<path opacity="0.19" d="M342.564 300.099C342.564 300.099 349.727 328.227 355.656 354.045H362.633C358.379 335.519 349.106 315.804 346.683 306.146C345.394 304.124 344.023 302.104 342.564 300.099Z" fill="#266659"/>
<path d="M381.904 284.026C382.345 284.134 382.79 284.187 383.233 284.187C384.231 284.187 385.213 283.915 386.087 283.385C387.351 282.62 388.241 281.409 388.593 279.974L394.205 257.11C394.558 255.675 394.33 254.189 393.565 252.926C392.8 251.663 391.588 250.774 390.154 250.421L387.331 249.728C389.064 244.481 390.202 241.571 390.214 241.539C390.568 240.638 390.125 239.621 389.223 239.267C388.322 238.913 387.305 239.357 386.951 240.257C386.897 240.392 385.726 243.389 383.916 248.889L379.611 247.833C376.649 247.107 373.649 248.923 372.923 251.884L367.31 274.749C366.957 276.183 367.185 277.669 367.95 278.932C368.715 280.195 369.927 281.084 371.361 281.437L374.75 282.269C370.549 300.74 367.617 319.377 365.996 337.885C363.271 321.083 359.364 304.256 354.336 287.656L357.115 286.761C360.017 285.827 361.618 282.706 360.683 279.804L354.078 259.287C353.143 256.385 350.022 254.783 347.121 255.718L343.499 256.884C341.467 251.927 340.189 249.238 340.131 249.116C339.714 248.242 338.669 247.873 337.794 248.289C336.921 248.705 336.55 249.752 336.967 250.625C336.981 250.654 338.215 253.253 340.151 257.963L337.907 258.685C335.006 259.62 333.405 262.741 334.339 265.643L340.945 286.16C341.698 288.5 343.875 289.994 346.211 289.994C346.772 289.994 347.341 289.909 347.902 289.727L350.998 288.731C355.518 303.661 359.124 318.775 361.768 333.886C358.458 324.518 352.838 311.672 343.905 299.398C343.41 298.719 342.502 298.486 341.742 298.844C340.982 299.201 340.582 300.048 340.789 300.863C340.861 301.144 348.015 329.268 353.871 354.768C354.054 355.563 354.762 356.128 355.579 356.128H365.482C365.662 356.128 365.839 356.098 366.006 356.044C366.17 356.098 366.343 356.125 366.521 356.128C366.538 356.128 366.555 356.131 366.573 356.131C366.6 356.135 366.627 356.135 366.654 356.135C366.7 356.135 366.745 356.131 366.79 356.128H376.556C377.373 356.128 378.081 355.563 378.264 354.768C384.121 329.267 391.274 301.144 391.346 300.863C391.553 300.048 391.154 299.201 390.393 298.843C389.633 298.487 388.725 298.719 388.231 299.398C378.673 312.529 372.908 326.316 369.706 335.797C371.349 318.255 374.178 300.606 378.157 283.105L381.904 284.026ZM346.827 286.391C345.765 286.734 344.623 286.147 344.282 285.085L337.676 264.569C337.334 263.507 337.92 262.365 338.982 262.022L348.195 259.057C348.4 258.99 348.609 258.959 348.813 258.959C349.668 258.959 350.465 259.505 350.741 260.362L357.347 280.878C357.688 281.94 357.102 283.083 356.04 283.425L346.827 286.391ZM356.974 352.622C353.322 336.786 349.232 320.159 346.683 309.933C357.845 328.448 362.179 346.672 363.376 352.622H356.974ZM375.16 352.622H368.758C369.951 346.672 374.276 328.461 385.453 309.93C382.903 320.156 378.813 336.785 375.16 352.622ZM372.197 278.033C371.672 277.904 371.228 277.578 370.948 277.116C370.669 276.654 370.585 276.11 370.714 275.585L376.328 252.721C376.593 251.637 377.689 250.97 378.775 251.238L389.318 253.827C389.843 253.955 390.287 254.281 390.567 254.743C390.846 255.206 390.93 255.749 390.801 256.274L385.188 279.139C385.058 279.663 384.734 280.107 384.272 280.386C383.809 280.666 383.265 280.75 382.741 280.621L377.24 279.271L372.197 278.033Z" fill="black"/>
<path d="M343.764 266.376C343.465 265.456 342.475 264.951 341.555 265.253C340.635 265.553 340.132 266.542 340.431 267.462L343.811 277.838C344.053 278.579 344.739 279.049 345.478 279.049C345.658 279.049 345.841 279.021 346.021 278.961C346.942 278.662 347.444 277.672 347.145 276.752L343.764 266.376Z" fill="black"/>
<path d="M377.511 267.621C378.286 267.621 378.995 267.103 379.204 266.318L382.012 255.774C382.261 254.838 381.705 253.878 380.769 253.629C379.834 253.38 378.874 253.936 378.624 254.871L375.816 265.417C375.567 266.352 376.124 267.312 377.059 267.561C377.21 267.602 377.361 267.621 377.511 267.621Z" fill="black"/>
</g>
<mask id="mask5_1_2" style="mask-type:luminance" maskUnits="userSpaceOnUse" x="71" y="275" width="78" height="78">
<path d="M148.63 275.913H71.7535V352.792H148.63V275.913Z" fill="white"/>
</mask>
<g mask="url(#mask5_1_2)">
<path d="M104.986 305.89L98.9316 307.839C97.6271 308.259 96.2296 307.542 95.8093 306.238L91.4685 292.755C91.0488 291.451 91.7659 290.053 93.0705 289.633L99.1243 287.684C100.429 287.264 101.827 287.981 102.247 289.285L106.588 302.767C107.008 304.072 106.291 305.47 104.986 305.89Z" fill="#FFCD00"/>
<path opacity="0.13" d="M106.588 302.766L102.247 289.283C101.839 288.017 100.51 287.307 99.2391 287.652L103.47 300.794C103.89 302.099 103.173 303.497 101.869 303.917L95.8143 305.866C95.7763 305.878 95.7382 305.887 95.7002 305.897L95.8093 306.236C96.2296 307.541 97.6271 308.258 98.9316 307.838L104.986 305.889C106.291 305.469 107.008 304.071 106.588 302.766Z" fill="#663A00"/>
<path d="M115.159 302.369L122.088 304.07C123.419 304.397 124.763 303.583 125.09 302.251L128.778 287.226C129.105 285.895 128.291 284.552 126.96 284.225L120.031 282.524C118.7 282.197 117.356 283.011 117.03 284.342L113.341 299.367C113.014 300.698 113.828 302.043 115.159 302.369Z" fill="#FFCD00"/>
<path opacity="0.13" d="M126.96 284.167L126.567 284.071L122.95 298.804C122.623 300.135 121.279 300.949 119.948 300.622L113.413 299.018L113.341 299.31C113.014 300.641 113.828 301.985 115.159 302.311L122.088 304.013C123.419 304.339 124.763 303.525 125.09 302.194L128.778 287.169C129.105 285.837 128.291 284.494 126.96 284.167Z" fill="#663A00"/>
<path d="M111.79 351.418C111.79 351.418 114.617 332.846 126.901 315.969C126.901 315.969 122.194 334.453 118.298 351.418H111.79Z" fill="#3EAC92"/>
<path opacity="0.19" d="M124.593 319.325C123.063 325.417 116.624 338.834 113.735 351.418H118.299C122.195 334.453 126.902 315.969 126.902 315.969C126.091 317.082 125.323 318.203 124.593 319.325Z" fill="#266659"/>
<path d="M111.021 351.418C111.021 351.418 108.195 332.846 95.9109 315.969C95.9109 315.969 100.618 334.453 104.514 351.418H111.021Z" fill="#3EAC92"/>
<path opacity="0.19" d="M95.9608 315.969C95.9608 315.969 100.668 334.453 104.564 351.418H109.149C106.354 339.244 100.26 326.289 98.6679 319.942C97.821 318.614 96.9199 317.286 95.9608 315.969Z" fill="#266659"/>
<path d="M121.813 305.406C122.103 305.477 122.396 305.512 122.686 305.512C123.342 305.512 123.987 305.334 124.562 304.985C125.393 304.482 125.977 303.686 126.208 302.744L129.897 287.718C130.128 286.776 129.979 285.799 129.476 284.969C128.973 284.139 128.177 283.554 127.235 283.324L125.38 282.868C126.518 279.42 127.266 277.507 127.274 277.486C127.507 276.894 127.215 276.226 126.623 275.993C126.031 275.76 125.362 276.052 125.13 276.644C125.095 276.733 124.324 278.702 123.135 282.317L120.306 281.622C118.36 281.145 116.389 282.339 115.911 284.285L112.222 299.31C111.991 300.252 112.141 301.229 112.643 302.059C113.147 302.889 113.942 303.473 114.885 303.705L117.112 304.252C114.351 316.39 112.424 328.637 111.36 340.799C109.568 329.758 107.001 318.7 103.697 307.792L105.523 307.204C107.43 306.589 108.482 304.538 107.868 302.632L103.528 289.149C102.913 287.242 100.862 286.19 98.9553 286.804L96.5757 287.57C95.24 284.313 94.4006 282.546 94.3619 282.466C94.0882 281.891 93.401 281.649 92.8267 281.922C92.2523 282.196 92.0091 282.883 92.2829 283.457C92.2916 283.476 93.1029 285.184 94.3757 288.279L92.9009 288.753C90.9939 289.368 89.9419 291.419 90.5561 293.326L94.8964 306.808C95.3921 308.347 96.822 309.328 98.358 309.328C98.7259 309.328 99.1 309.272 99.4686 309.154L101.503 308.498C104.474 318.309 106.843 328.241 108.581 338.172C106.405 332.016 102.713 323.573 96.842 315.508C96.5171 315.062 95.9209 314.909 95.4208 315.144C94.9207 315.379 94.6581 315.935 94.7947 316.47C94.8415 316.655 99.5428 335.136 103.391 351.893C103.511 352.418 103.977 352.789 104.514 352.789H111.021C111.14 352.789 111.256 352.768 111.366 352.732C111.473 352.768 111.587 352.785 111.704 352.789C111.715 352.789 111.727 352.789 111.738 352.789C111.756 352.792 111.774 352.792 111.792 352.792C111.821 352.792 111.851 352.789 111.881 352.789H118.299C118.835 352.789 119.301 352.418 119.421 351.893C123.27 335.136 127.971 316.655 128.018 316.47C128.154 315.935 127.891 315.379 127.391 315.143C126.892 314.909 126.296 315.062 125.97 315.508C119.69 324.137 115.901 333.197 113.798 339.427C114.877 327.899 116.736 316.301 119.35 304.801L121.813 305.406ZM98.7627 306.96C98.0649 307.186 97.3141 306.8 97.0896 306.102L92.7487 292.62C92.5242 291.922 92.909 291.172 93.6068 290.947L99.6613 288.998C99.796 288.955 99.9332 288.934 100.068 288.934C100.63 288.934 101.153 289.293 101.334 289.856L105.675 303.338C105.9 304.036 105.514 304.786 104.817 305.011L98.7627 306.96ZM105.431 350.482C103.031 340.078 100.343 329.151 98.6679 322.431C106.003 334.598 108.851 346.572 109.638 350.482H105.431ZM117.381 350.482H113.174C113.958 346.575 116.8 334.606 124.145 322.429C122.469 329.149 119.781 340.077 117.381 350.482ZM115.434 301.468C115.089 301.383 114.798 301.17 114.614 300.865C114.43 300.562 114.375 300.204 114.46 299.859L118.148 284.834C118.323 284.122 119.043 283.684 119.757 283.86L126.685 285.561C127.03 285.646 127.321 285.859 127.505 286.163C127.689 286.467 127.744 286.825 127.659 287.169L123.971 302.195C123.886 302.54 123.672 302.831 123.368 303.015C123.065 303.199 122.707 303.254 122.363 303.169L118.749 302.281L115.434 301.468Z" fill="black"/>
<path d="M96.7497 293.808C96.5526 293.203 95.9022 292.872 95.298 293.069C94.6931 293.266 94.3626 293.917 94.5596 294.522L96.7809 301.34C96.9393 301.826 97.3907 302.135 97.8759 302.135C97.9938 302.135 98.1141 302.117 98.2326 302.079C98.8375 301.881 99.168 301.231 98.9709 300.626L96.7497 293.808Z" fill="black"/>
<path d="M118.926 294.626C119.435 294.626 119.901 294.285 120.038 293.77L121.884 286.841C122.048 286.226 121.682 285.595 121.067 285.431C120.453 285.267 119.821 285.633 119.657 286.248L117.812 293.177C117.649 293.792 118.014 294.423 118.629 294.587C118.728 294.613 118.828 294.626 118.926 294.626Z" fill="black"/>
</g>
</g>
</g>
<mask id="mask6_1_2" style="mask-type:luminance" maskUnits="userSpaceOnUse" x="122" y="289" width="58" height="58">
<path d="M179.062 289.358H122.315V346.107H179.062V289.358Z" fill="white"/>
</mask>
<g mask="url(#mask6_1_2)">
<path d="M162.128 329.327C154.851 333.469 152.648 341.5 152.079 344.345C152.071 344.387 152.036 344.416 151.993 344.416C151.945 344.416 151.905 344.376 151.905 344.327V327.046H149.338V344.327C149.338 344.376 149.298 344.416 149.249 344.416C149.207 344.416 149.171 344.387 149.163 344.345C148.594 341.5 146.391 333.469 139.114 329.327C139.114 329.327 138.564 338.642 149.338 345.377H151.905V345.373C151.905 345.374 151.905 345.377 151.905 345.377C151.907 345.375 151.909 345.374 151.911 345.373H151.924L151.934 345.358C162.677 338.624 162.128 329.327 162.128 329.327Z" fill="#328777"/>
<path d="M151.905 327.046H149.338V331.223H151.905V327.046Z" fill="#266659"/>
<path d="M150.688 305.867H144.954C138.922 305.867 134.031 310.757 134.031 316.79C134.031 322.824 146.989 327.715 150.688 327.715C154.388 327.715 167.346 322.824 167.346 316.79C167.346 310.757 162.455 305.866 156.422 305.866L150.688 305.867Z" fill="#FF3F62"/>
<path d="M150.696 293.431C151.588 293.431 152.311 292.707 152.311 291.816C152.311 290.924 151.588 290.201 150.696 290.201C149.805 290.201 149.082 290.924 149.082 291.816C149.082 292.707 149.805 293.431 150.696 293.431Z" fill="#FFDA44"/>
<path d="M161.612 316.79C161.612 322.824 154.387 327.715 150.688 327.715C147.25 327.715 139.764 322.824 139.764 316.79C139.764 310.757 144.655 305.866 150.688 305.866C156.721 305.866 161.612 310.757 161.612 316.79Z" fill="#C70024"/>
<path opacity="0.28" d="M161.706 307.138C163.103 308.973 163.933 311.265 163.933 313.75C163.933 319.24 153.203 323.784 148.484 324.557C148.187 324.706 147.873 324.833 147.543 324.935C147.54 324.936 147.537 324.937 147.535 324.937C147.53 324.939 147.525 324.94 147.521 324.942C147.5 324.948 147.48 324.952 147.459 324.956C147.441 324.96 147.422 324.966 147.403 324.968C147.363 324.975 147.323 324.978 147.283 324.978C147.281 324.978 147.278 324.979 147.276 324.979H147.275C147.273 324.979 147.27 324.978 147.268 324.978C147.229 324.978 147.188 324.975 147.148 324.968C147.129 324.966 147.111 324.96 147.092 324.956C147.071 324.952 147.051 324.948 147.03 324.942C147.025 324.941 147.021 324.939 147.016 324.937C147.013 324.937 147.011 324.936 147.008 324.935C146.678 324.833 146.364 324.706 146.067 324.557C143.488 324.134 139.114 322.586 135.678 320.372C138.787 324.16 146.004 327.001 149.644 327.598C149.942 327.747 150.255 327.874 150.586 327.976C150.588 327.977 150.591 327.977 150.593 327.979C150.598 327.98 150.603 327.982 150.608 327.983C150.628 327.989 150.649 327.992 150.67 327.997C150.688 328.001 150.706 328.007 150.726 328.01C150.766 328.016 150.805 328.019 150.845 328.019C150.848 328.019 150.85 328.02 150.853 328.02H150.853C150.856 328.02 150.858 328.019 150.86 328.019C150.9 328.019 150.94 328.016 150.981 328.01C150.999 328.007 151.018 328.001 151.037 327.997C151.057 327.992 151.078 327.989 151.098 327.983C151.103 327.982 151.108 327.98 151.112 327.979C151.115 327.977 151.118 327.977 151.12 327.976C151.451 327.874 151.765 327.747 152.061 327.598C156.781 326.824 167.511 322.281 167.511 316.79C167.511 312.607 165.159 308.973 161.706 307.138Z" fill="#610012"/>
<path d="M143.662 296.186C144.553 296.186 145.276 295.463 145.276 294.571C145.276 293.679 144.553 292.957 143.662 292.957C142.77 292.957 142.047 293.679 142.047 294.571C142.047 295.463 142.77 296.186 143.662 296.186Z" fill="#FFDA44"/>
<path d="M157.52 295.947C158.412 295.947 159.135 295.224 159.135 294.332C159.135 293.44 158.412 292.718 157.52 292.718C156.629 292.718 155.906 293.44 155.906 294.332C155.906 295.224 156.629 295.947 157.52 295.947Z" fill="#FFDA44"/>
<path d="M160.802 325.258C164.172 323.459 168.189 320.529 168.189 316.79C168.189 310.302 162.91 305.023 156.422 305.023H153.922L157.43 296.787C157.46 296.788 157.49 296.789 157.52 296.789C158.875 296.789 159.977 295.687 159.977 294.332C159.977 292.977 158.875 291.875 157.52 291.875C156.165 291.875 155.063 292.977 155.063 294.332C155.063 295.052 155.374 295.7 155.868 296.15L152.09 305.023H151.539V294.124C152.48 293.78 153.153 292.875 153.153 291.816C153.153 290.461 152.051 289.358 150.696 289.358C149.341 289.358 148.239 290.461 148.239 291.816C148.239 292.875 148.912 293.78 149.853 294.124V305.023H149.286L145.519 296.178C145.893 295.747 146.12 295.185 146.12 294.571C146.12 293.216 145.017 292.113 143.662 292.113C142.307 292.113 141.205 293.216 141.205 294.571C141.205 295.926 142.307 297.029 143.662 297.029C143.79 297.029 143.915 297.019 144.038 297L147.454 305.023H144.954C138.466 305.023 133.188 310.302 133.188 316.79C133.188 320.529 137.205 323.459 140.575 325.258C143.385 326.759 146.428 327.82 148.625 328.288V339.155C148.579 339.043 148.532 338.93 148.484 338.817C146.529 334.228 143.479 330.654 139.662 328.482C139.409 328.338 139.099 328.335 138.843 328.474C138.587 328.613 138.421 328.874 138.403 329.165C138.397 329.267 138.27 331.712 139.529 335.014C140.678 338.027 143.258 342.376 149.021 345.978C149.025 345.981 149.029 345.982 149.033 345.985C149.061 346.002 149.089 346.017 149.119 346.03C149.122 346.032 149.127 346.035 149.13 346.036C149.164 346.051 149.197 346.063 149.232 346.073C149.238 346.075 149.245 346.076 149.251 346.078C149.279 346.085 149.308 346.091 149.337 346.096C149.346 346.097 149.354 346.099 149.363 346.1C149.397 346.104 149.432 346.107 149.468 346.107H152.035C152.071 346.107 152.106 346.104 152.141 346.1C152.149 346.099 152.158 346.098 152.167 346.096C152.196 346.091 152.224 346.085 152.252 346.078C152.259 346.076 152.265 346.075 152.272 346.073C152.306 346.063 152.34 346.051 152.373 346.036C152.377 346.035 152.381 346.032 152.385 346.03C152.414 346.017 152.443 346.002 152.47 345.985C152.474 345.983 152.479 345.981 152.482 345.979C158.246 342.376 160.825 338.027 161.975 335.014C163.234 331.712 163.106 329.267 163.1 329.165C163.083 328.874 162.917 328.613 162.661 328.474C162.404 328.335 162.095 328.338 161.842 328.482C158.025 330.654 154.974 334.228 153.019 338.818C152.971 338.931 152.924 339.043 152.878 339.155V328.261C155.064 327.779 158.045 326.73 160.802 325.258ZM157.52 293.56C157.946 293.56 158.292 293.906 158.292 294.332C158.292 294.758 157.946 295.104 157.52 295.104C157.094 295.104 156.748 294.758 156.748 294.332C156.748 293.906 157.094 293.56 157.52 293.56ZM142.891 294.571C142.891 294.146 143.237 293.799 143.662 293.799C144.088 293.799 144.434 294.146 144.434 294.571C144.434 294.996 144.088 295.343 143.662 295.343C143.237 295.343 142.891 294.996 142.891 294.571ZM141.136 334.497C140.566 333.025 140.303 331.736 140.183 330.807C143.735 333.307 145.787 336.803 146.913 339.431C147.568 340.958 147.987 342.362 148.247 343.419C144.074 340.352 142.082 336.939 141.136 334.497ZM154.59 339.431C155.716 336.803 157.769 333.308 161.321 330.807C160.978 333.41 159.501 338.836 153.256 343.42C153.516 342.362 153.935 340.959 154.59 339.431ZM150.688 306.709C156.247 306.709 160.769 311.231 160.769 316.79C160.769 320.089 158.398 322.647 156.984 323.88C156.078 324.669 155.058 325.351 154.058 325.864C156.714 322.748 157.162 317.667 157.185 317.388C157.222 316.924 156.877 316.518 156.413 316.48C155.95 316.443 155.543 316.788 155.505 317.251C155.499 317.322 154.929 323.721 151.531 325.869V315.716C151.531 315.25 151.154 314.873 150.688 314.873C150.223 314.873 149.846 315.25 149.846 315.716V325.869C146.453 323.724 145.88 317.342 145.872 317.252C145.834 316.788 145.428 316.442 144.964 316.48C144.5 316.518 144.154 316.924 144.192 317.388C144.215 317.664 144.655 322.653 147.246 325.775C146.361 325.304 145.416 324.675 144.487 323.876C143.038 322.632 140.607 320.056 140.607 316.79C140.607 311.231 145.129 306.709 150.688 306.709ZM166.503 316.79C166.503 319.847 162.434 322.476 160.007 323.772C159.681 323.946 159.351 324.114 159.019 324.276C161.243 322.009 162.455 319.388 162.455 316.79C162.455 312.522 160.171 308.779 156.761 306.715C162.164 306.895 166.503 311.345 166.503 316.79ZM150.696 291.044C151.122 291.044 151.468 291.39 151.468 291.816C151.468 292.241 151.122 292.587 150.696 292.587C150.27 292.587 149.924 292.241 149.924 291.816C149.924 291.39 150.27 291.044 150.696 291.044ZM134.873 316.79C134.873 311.345 139.213 306.895 144.615 306.715C141.206 308.778 138.922 312.522 138.922 316.79C138.922 320.104 140.902 322.746 142.523 324.355C142.136 324.169 141.75 323.974 141.369 323.772C138.943 322.476 134.873 319.847 134.873 316.79ZM151.193 344.421H150.311V328.544C150.445 328.553 150.571 328.557 150.688 328.557C150.749 328.557 150.812 328.556 150.878 328.554C150.923 328.552 150.968 328.549 151.013 328.547C151.037 328.545 151.061 328.544 151.086 328.542C151.099 328.542 151.111 328.54 151.123 328.539C151.146 328.538 151.17 328.535 151.193 328.534V344.421Z" fill="black"/>
</g>
</g>
<mask id="mask7_1_2" style="mask-type:luminance" maskUnits="userSpaceOnUse" x="394" y="228" width="138" height="139">
<path d="M531.393 228.868H394.202V366.063H531.393V228.868Z" fill="white"/>
</mask>
<g mask="url(#mask7_1_2)">
<path d="M470.005 350.751L493.577 320.121L479.273 364.022H446.323L432.018 320.121L455.59 350.751L452.549 346.799L437.928 305.908L462.823 339.843L487.718 305.908L473.096 346.799" fill="#328777"/>
<path d="M475.113 323.089L473.096 346.799L478.043 332.963L487.718 305.908L475.113 323.089Z" fill="#266659"/>
<path d="M483.085 333.924L473.278 364.022H479.403L493.708 320.121L483.085 333.924Z" fill="#266659"/>
<path d="M450.651 257.759C452.684 257.759 454.332 256.111 454.332 254.077C454.332 252.044 452.684 250.396 450.651 250.396C448.618 250.396 446.969 252.044 446.969 254.077C446.969 256.111 448.618 257.759 450.651 257.759Z" fill="#903093"/>
<path d="M444.68 246.327C446.714 246.327 448.362 244.678 448.362 242.645C448.362 240.612 446.714 238.964 444.68 238.964C442.648 238.964 440.999 240.612 440.999 242.645C440.999 244.678 442.648 246.327 444.68 246.327Z" fill="#903093"/>
<path d="M462.563 238.272C464.597 238.272 466.245 236.623 466.245 234.59C466.245 232.557 464.597 230.909 462.563 230.909C460.53 230.909 458.882 232.557 458.882 234.59C458.882 236.623 460.53 238.272 462.563 238.272Z" fill="#903093"/>
<path d="M474.931 242.739C476.964 242.739 478.612 241.09 478.612 239.057C478.612 237.024 476.964 235.375 474.931 235.375C472.897 235.375 471.249 237.024 471.249 239.057C471.249 241.09 472.897 242.739 474.931 242.739Z" fill="#903093"/>
<path d="M480.977 250.879C483.01 250.879 484.659 249.231 484.659 247.198C484.659 245.164 483.01 243.516 480.977 243.516C478.944 243.516 477.296 245.164 477.296 247.198C477.296 249.231 478.944 250.879 480.977 250.879Z" fill="#903093"/>
<path d="M474.473 263.343C476.507 263.343 478.155 261.694 478.155 259.661C478.155 257.628 476.507 255.979 474.473 255.979C472.44 255.979 470.792 257.628 470.792 259.661C470.792 261.694 472.44 263.343 474.473 263.343Z" fill="#903093"/>
<path d="M494.53 318.315C493.651 317.852 492.566 318.088 491.96 318.876L479.425 335.162L489.64 306.596C489.982 305.641 489.571 304.58 488.675 304.105C487.78 303.629 486.672 303.882 486.072 304.7L464.604 333.963V267.475L470.833 264.073C471.824 264.891 473.092 265.384 474.474 265.384C477.63 265.384 480.197 262.816 480.197 259.661C480.197 256.505 477.63 253.937 474.474 253.937C471.319 253.937 468.751 256.505 468.751 259.661C468.751 259.953 468.781 260.238 468.822 260.518L464.604 262.822V260.347C464.604 260.342 464.604 260.337 464.604 260.332V258.22L477.098 251.394C478.12 252.338 479.48 252.921 480.977 252.921C484.133 252.921 486.7 250.354 486.7 247.198C486.7 244.042 484.133 241.475 480.977 241.475C480.669 241.475 480.368 241.506 480.072 241.554C480.441 240.799 480.653 239.953 480.653 239.058C480.653 235.902 478.085 233.335 474.93 233.335C471.774 233.335 469.207 235.902 469.207 239.058C469.207 239.286 469.224 239.511 469.25 239.732L464.605 242.269V239.932C466.754 239.108 468.287 237.028 468.287 234.592C468.285 231.435 465.719 228.868 462.563 228.868C459.407 228.868 456.84 231.435 456.84 234.591C456.84 237.027 458.372 239.107 460.521 239.932V248.724L450.375 243.181C450.392 243.005 450.403 242.826 450.403 242.645C450.403 239.489 447.835 236.921 444.68 236.921C441.524 236.921 438.956 239.489 438.956 242.645C438.956 245.8 441.524 248.368 444.68 248.368C446.176 248.368 447.537 247.785 448.558 246.842L451.434 248.413C451.177 248.377 450.918 248.353 450.651 248.353C447.495 248.353 444.929 250.92 444.929 254.076C444.929 257.231 447.496 259.799 450.651 259.799C452.149 259.799 453.51 259.215 454.531 258.271L460.521 261.543V333.253L439.574 304.699C438.974 303.881 437.865 303.628 436.97 304.103C436.075 304.579 435.663 305.64 436.004 306.594L446.263 335.282L433.635 318.874C433.029 318.086 431.945 317.851 431.065 318.313C430.186 318.777 429.768 319.807 430.076 320.752L444.382 364.653C444.656 365.493 445.439 366.062 446.323 366.062H479.273C480.156 366.062 480.939 365.494 481.214 364.653L495.519 320.752C495.826 319.809 495.409 318.779 494.53 318.315ZM474.474 258.02C475.378 258.02 476.113 258.756 476.113 259.66C476.113 260.564 475.378 261.3 474.474 261.3C473.57 261.3 472.835 260.564 472.835 259.66C472.835 258.756 473.57 258.02 474.474 258.02ZM482.617 247.198C482.617 248.102 481.882 248.837 480.977 248.837C480.073 248.837 479.338 248.102 479.338 247.198C479.338 246.294 480.073 245.558 480.977 245.558C481.882 245.558 482.617 246.294 482.617 247.198ZM474.93 237.418C475.833 237.418 476.569 238.153 476.569 239.057C476.569 239.961 475.833 240.697 474.93 240.697C474.026 240.697 473.29 239.961 473.29 239.057C473.29 238.153 474.025 237.418 474.93 237.418ZM471.151 243.345C472.16 244.235 473.481 244.78 474.929 244.78C475.238 244.78 475.539 244.749 475.835 244.702C475.466 245.457 475.253 246.302 475.253 247.197C475.253 247.378 475.265 247.556 475.281 247.733L464.604 253.566V252.179C464.604 252.174 464.604 252.17 464.604 252.166V246.922L471.151 243.345ZM462.563 232.951C463.467 232.951 464.202 233.687 464.202 234.591C464.202 235.495 463.467 236.231 462.563 236.231C461.658 236.231 460.923 235.495 460.923 234.591C460.923 233.687 461.658 232.951 462.563 232.951ZM444.679 244.284C443.776 244.284 443.04 243.549 443.04 242.645C443.04 241.741 443.776 241.005 444.679 241.005C445.583 241.005 446.319 241.741 446.319 242.645C446.319 243.549 445.583 244.284 444.679 244.284ZM450.651 255.716C449.747 255.716 449.012 254.981 449.012 254.076C449.012 253.172 449.747 252.437 450.651 252.437C451.555 252.437 452.291 253.172 452.291 254.076C452.291 254.981 451.555 255.716 450.651 255.716ZM456.347 254.611C456.364 254.435 456.375 254.256 456.375 254.076C456.375 252.656 455.852 251.359 454.993 250.357L460.522 253.377V256.891L456.347 254.611ZM477.79 361.98H447.805L437.634 330.767L450.93 348.043C450.933 348.047 450.936 348.052 450.94 348.056L453.972 351.996C454.66 352.889 455.941 353.056 456.836 352.369C457.729 351.681 457.896 350.399 457.208 349.505L454.363 345.809L444.566 318.409L461.173 341.046C461.231 341.126 461.296 341.2 461.367 341.271C461.494 341.402 461.635 341.513 461.786 341.603C461.8 341.61 461.814 341.616 461.827 341.624C461.87 341.648 461.915 341.673 461.96 341.694C461.995 341.71 462.029 341.722 462.063 341.736C462.089 341.747 462.114 341.758 462.141 341.768C462.184 341.783 462.228 341.795 462.271 341.807C462.29 341.813 462.309 341.819 462.328 341.824C462.374 341.835 462.419 341.843 462.465 341.852C462.484 341.855 462.503 341.86 462.522 341.863C462.565 341.869 462.608 341.873 462.652 341.876C462.675 341.878 462.697 341.881 462.719 341.882C462.758 341.884 462.797 341.883 462.835 341.883C462.863 341.883 462.891 341.883 462.919 341.882C462.952 341.881 462.985 341.877 463.018 341.873C463.052 341.87 463.085 341.868 463.118 341.863C463.147 341.858 463.176 341.852 463.204 341.846C463.24 341.84 463.276 341.833 463.312 341.825C463.341 341.818 463.37 341.808 463.399 341.8C463.433 341.789 463.466 341.78 463.5 341.768C463.536 341.756 463.572 341.74 463.608 341.725C463.633 341.714 463.657 341.706 463.681 341.695C463.736 341.669 463.79 341.641 463.843 341.61C463.847 341.608 463.852 341.606 463.856 341.603C464.015 341.51 464.162 341.392 464.294 341.255C464.358 341.188 464.418 341.119 464.472 341.046L481.079 318.407L471.325 345.687L468.386 349.505C467.699 350.399 467.866 351.68 468.759 352.369C469.653 353.056 470.936 352.889 471.623 351.996L474.45 348.323C474.638 348.156 474.796 347.953 474.914 347.72L487.962 330.766L477.79 361.98Z" fill="black"/>
<path d="M437.676 279.995C438.075 280.394 438.598 280.593 439.12 280.593C439.642 280.593 440.165 280.394 440.564 279.995L443.691 276.868C444.489 276.07 444.489 274.778 443.691 273.981C442.894 273.183 441.602 273.183 440.804 273.981L439.12 275.665L437.3 273.844C436.502 273.047 435.209 273.047 434.412 273.844C433.615 274.642 433.615 275.934 434.412 276.731L437.676 279.995Z" fill="black"/>
<path d="M483.912 286.109C483.115 285.312 481.822 285.312 481.025 286.109C480.227 286.907 480.227 288.199 481.025 288.997L484.289 292.261C484.688 292.659 485.21 292.859 485.733 292.859C486.256 292.859 486.778 292.659 487.177 292.261L490.305 289.133C491.102 288.336 491.102 287.043 490.305 286.246C489.507 285.448 488.214 285.448 487.417 286.246L485.733 287.93L483.912 286.109Z" fill="black"/>
<path d="M500.942 342.106L518.621 319.135L507.892 352.06H483.18L472.451 319.135L490.131 342.106L487.85 339.142L476.884 308.475L495.555 333.926L514.226 308.475L503.26 339.142" fill="#328777"/>
<path d="M504.773 321.361L503.26 339.142L506.971 328.766L514.226 308.475L504.773 321.361Z" fill="#266659"/>
<path d="M510.752 329.486L503.396 352.06H507.99L518.719 319.135L510.752 329.486Z" fill="#266659"/>
<path d="M486.426 272.362C487.951 272.362 489.187 271.126 489.187 269.601C489.187 268.076 487.951 266.84 486.426 266.84C484.901 266.84 483.665 268.076 483.665 269.601C483.665 271.126 484.901 272.362 486.426 272.362Z" fill="#903093"/>
<path d="M481.949 263.788C483.474 263.788 484.71 262.552 484.71 261.027C484.71 259.502 483.474 258.266 481.949 258.266C480.424 258.266 479.188 259.502 479.188 261.027C479.188 262.552 480.424 263.788 481.949 263.788Z" fill="#903093"/>
<path d="M495.361 257.747C496.886 257.747 498.122 256.511 498.122 254.986C498.122 253.461 496.886 252.225 495.361 252.225C493.836 252.225 492.6 253.461 492.6 254.986C492.6 256.511 493.836 257.747 495.361 257.747Z" fill="#903093"/>
<path d="M504.636 261.098C506.161 261.098 507.397 259.862 507.397 258.336C507.397 256.811 506.161 255.575 504.636 255.575C503.111 255.575 501.875 256.811 501.875 258.336C501.875 259.862 503.111 261.098 504.636 261.098Z" fill="#903093"/>
<path d="M509.171 267.203C510.696 267.203 511.932 265.967 511.932 264.441C511.932 262.917 510.696 261.681 509.171 261.681C507.646 261.681 506.41 262.917 506.41 264.441C506.41 265.967 507.646 267.203 509.171 267.203Z" fill="#903093"/>
<path d="M504.293 276.55C505.818 276.55 507.054 275.314 507.054 273.789C507.054 272.264 505.818 271.028 504.293 271.028C502.768 271.028 501.532 272.264 501.532 273.789C501.532 275.314 502.768 276.55 504.293 276.55Z" fill="#903093"/>
<path d="M519.502 317.78C518.838 317.432 518.018 317.609 517.561 318.2L508.095 330.415L515.809 308.99C516.067 308.274 515.756 307.479 515.08 307.122C514.404 306.765 513.567 306.955 513.114 307.569L496.901 329.516V279.65L501.605 277.098C502.353 277.712 503.312 278.081 504.355 278.081C506.738 278.081 508.677 276.156 508.677 273.789C508.677 271.422 506.738 269.496 504.355 269.496C501.971 269.496 500.033 271.422 500.033 273.789C500.033 274.008 500.055 274.221 500.087 274.432L496.901 276.16V274.303C496.901 274.3 496.901 274.296 496.901 274.293V272.708L506.337 267.589C507.108 268.297 508.136 268.734 509.266 268.734C511.65 268.734 513.588 266.809 513.588 264.442C513.588 262.075 511.65 260.15 509.266 260.15C509.033 260.15 508.805 260.173 508.583 260.209C508.861 259.643 509.021 259.008 509.021 258.337C509.021 255.97 507.082 254.045 504.699 254.045C502.316 254.045 500.377 255.97 500.377 258.337C500.377 258.508 500.39 258.677 500.41 258.843L496.902 260.746V258.993C498.525 258.374 499.682 256.815 499.682 254.987C499.682 252.62 497.743 250.694 495.359 250.694C492.975 250.694 491.037 252.62 491.037 254.987C491.037 256.814 492.195 258.374 493.817 258.992V265.586L486.155 261.429C486.168 261.297 486.176 261.163 486.176 261.027C486.176 258.66 484.237 256.735 481.854 256.735C479.47 256.735 477.531 258.66 477.531 261.027C477.531 263.394 479.47 265.319 481.854 265.319C482.984 265.319 484.011 264.883 484.783 264.174L486.955 265.353C486.761 265.326 486.565 265.308 486.363 265.308C483.98 265.308 482.041 267.233 482.041 269.6C482.041 271.967 483.981 273.892 486.363 273.892C487.495 273.892 488.522 273.455 489.293 272.747L493.817 275.201V328.983L477.997 307.568C477.545 306.954 476.707 306.765 476.031 307.121C475.355 307.477 475.044 308.273 475.302 308.989L483.049 330.505L473.512 318.199C473.055 317.609 472.236 317.431 471.571 317.779C470.907 318.126 470.592 318.899 470.825 319.608L481.629 352.533C481.836 353.164 482.427 353.59 483.095 353.59H507.979C508.646 353.59 509.238 353.164 509.445 352.533L520.248 319.607C520.481 318.9 520.166 318.128 519.502 317.78ZM504.355 272.559C505.038 272.559 505.593 273.11 505.593 273.789C505.593 274.467 505.038 275.018 504.355 275.018C503.672 275.018 503.117 274.467 503.117 273.789C503.117 273.111 503.672 272.559 504.355 272.559ZM510.505 264.442C510.505 265.12 509.949 265.672 509.266 265.672C508.583 265.672 508.028 265.12 508.028 264.442C508.028 263.764 508.583 263.212 509.266 263.212C509.949 263.212 510.505 263.764 510.505 264.442ZM504.699 257.106C505.382 257.106 505.937 257.658 505.937 258.336C505.937 259.015 505.382 259.566 504.699 259.566C504.016 259.566 503.461 259.015 503.461 258.336C503.461 257.658 504.016 257.106 504.699 257.106ZM501.845 261.552C502.607 262.22 503.605 262.629 504.698 262.629C504.932 262.629 505.159 262.605 505.382 262.569C505.104 263.136 504.943 263.77 504.943 264.441C504.943 264.577 504.952 264.711 504.965 264.843L496.901 269.218V268.178C496.901 268.174 496.901 268.171 496.901 268.167V264.235L501.845 261.552ZM495.359 253.757C496.042 253.757 496.597 254.309 496.597 254.987C496.597 255.665 496.042 256.217 495.359 256.217C494.677 256.217 494.121 255.665 494.121 254.987C494.121 254.309 494.677 253.757 495.359 253.757ZM481.854 262.257C481.171 262.257 480.615 261.705 480.615 261.027C480.615 260.349 481.171 259.797 481.854 259.797C482.536 259.797 483.091 260.349 483.091 261.027C483.091 261.705 482.536 262.257 481.854 262.257ZM486.363 270.83C485.681 270.83 485.125 270.279 485.125 269.6C485.125 268.923 485.681 268.371 486.363 268.371C487.046 268.371 487.601 268.923 487.601 269.6C487.601 270.279 487.046 270.83 486.363 270.83ZM490.665 270.001C490.677 269.869 490.686 269.736 490.686 269.6C490.686 268.536 490.291 267.562 489.642 266.811L493.817 269.077V271.712L490.665 270.001ZM506.859 350.529H484.214L476.532 327.119L486.574 340.075C486.577 340.079 486.579 340.082 486.582 340.086L488.872 343.041C489.39 343.71 490.358 343.836 491.034 343.32C491.708 342.804 491.835 341.843 491.315 341.172L489.166 338.4L481.768 317.85L494.309 334.828C494.353 334.888 494.403 334.944 494.456 334.997C494.552 335.095 494.659 335.179 494.773 335.246C494.783 335.251 494.793 335.256 494.803 335.262C494.837 335.28 494.87 335.299 494.904 335.314C494.93 335.326 494.956 335.335 494.982 335.345C495.001 335.353 495.021 335.362 495.041 335.369C495.073 335.381 495.106 335.39 495.139 335.399C495.154 335.403 495.168 335.408 495.182 335.411C495.217 335.42 495.251 335.426 495.286 335.433C495.3 335.435 495.314 335.438 495.328 335.441C495.361 335.445 495.394 335.448 495.427 335.451C495.444 335.452 495.46 335.454 495.477 335.455C495.507 335.456 495.536 335.456 495.565 335.456C495.586 335.456 495.607 335.456 495.628 335.455C495.653 335.454 495.678 335.451 495.703 335.449C495.728 335.446 495.754 335.444 495.778 335.441C495.8 335.438 495.822 335.433 495.844 335.428C495.871 335.423 495.898 335.418 495.925 335.412C495.947 335.407 495.969 335.4 495.991 335.393C496.016 335.386 496.042 335.379 496.067 335.37C496.095 335.36 496.121 335.348 496.149 335.337C496.167 335.33 496.186 335.323 496.204 335.315C496.246 335.295 496.286 335.274 496.326 335.251C496.329 335.249 496.333 335.247 496.336 335.246C496.456 335.176 496.567 335.088 496.667 334.985C496.715 334.934 496.761 334.883 496.801 334.828L509.343 317.849L501.976 338.309L499.758 341.172C499.238 341.842 499.364 342.804 500.039 343.32C500.714 343.836 501.683 343.711 502.202 343.04L504.337 340.286C504.478 340.161 504.598 340.009 504.687 339.833L514.541 327.118L506.859 350.529Z" fill="black"/>
<path d="M476.695 289.04C476.995 289.339 477.386 289.489 477.778 289.489C478.17 289.489 478.562 289.339 478.862 289.04L481.207 286.694C481.805 286.096 481.805 285.127 481.207 284.529C480.609 283.931 479.639 283.931 479.041 284.529L477.778 285.792L476.413 284.427C475.815 283.829 474.845 283.829 474.247 284.427C473.649 285.025 473.649 285.994 474.247 286.592L476.695 289.04Z" fill="black"/>
<path d="M511.372 293.625C510.774 293.027 509.804 293.027 509.207 293.625C508.608 294.223 508.608 295.193 509.207 295.791L511.655 298.239C511.954 298.538 512.346 298.688 512.738 298.688C513.13 298.688 513.522 298.538 513.821 298.239L516.166 295.893C516.764 295.295 516.764 294.326 516.166 293.727C515.568 293.13 514.599 293.13 514.001 293.727L512.738 294.991L511.372 293.625Z" fill="black"/>
<mask id="mask8_1_2" style="mask-type:luminance" maskUnits="userSpaceOnUse" x="387" y="294" width="58" height="58">
<path d="M444.09 294.971H387.343V351.719H444.09V294.971Z" fill="white"/>
</mask>
<g mask="url(#mask8_1_2)">
<path d="M427.156 334.939C419.879 339.081 417.676 347.113 417.108 349.958C417.099 350 417.064 350.028 417.022 350.028C416.973 350.028 416.933 349.988 416.933 349.94V332.659H414.366V349.94C414.366 349.988 414.326 350.028 414.277 350.028C414.235 350.028 414.199 350 414.191 349.958C413.622 347.113 411.419 339.081 404.142 334.939C404.142 334.939 403.592 344.254 414.366 350.989H416.933V350.985C416.933 350.987 416.933 350.989 416.933 350.989C416.935 350.988 416.937 350.987 416.939 350.985H416.952L416.962 350.97C427.705 344.237 427.156 334.939 427.156 334.939Z" fill="#328777"/>
<path d="M416.933 332.659H414.366V336.836H416.933V332.659Z" fill="#266659"/>
<path d="M415.716 311.479H409.982C403.95 311.479 399.059 316.369 399.059 322.403C399.059 328.436 412.017 333.327 415.716 333.327C419.416 333.327 432.374 328.436 432.374 322.403C432.374 316.369 427.484 311.478 421.45 311.478L415.716 311.479Z" fill="#FF3F62"/>
<path d="M415.724 299.043C416.616 299.043 417.339 298.32 417.339 297.428C417.339 296.537 416.616 295.814 415.724 295.814C414.833 295.814 414.11 296.537 414.11 297.428C414.11 298.32 414.833 299.043 415.724 299.043Z" fill="#FFDA44"/>
<path d="M426.64 322.403C426.64 328.436 419.415 333.327 415.716 333.327C412.278 333.327 404.792 328.436 404.792 322.403C404.792 316.369 409.683 311.478 415.716 311.478C421.75 311.478 426.64 316.369 426.64 322.403Z" fill="#C70024"/>
<path opacity="0.28" d="M426.734 312.751C428.131 314.586 428.961 316.877 428.961 319.362C428.961 324.852 418.231 329.396 413.512 330.169C413.215 330.318 412.901 330.446 412.571 330.547C412.568 330.548 412.565 330.549 412.563 330.55C412.558 330.552 412.553 330.553 412.549 330.555C412.528 330.561 412.508 330.564 412.487 330.568C412.469 330.573 412.451 330.578 412.431 330.581C412.391 330.588 412.351 330.59 412.311 330.591C412.309 330.591 412.306 330.591 412.304 330.591H412.303C412.301 330.591 412.298 330.591 412.296 330.591C412.257 330.59 412.216 330.587 412.176 330.581C412.157 330.578 412.139 330.573 412.12 330.568C412.099 330.564 412.079 330.561 412.058 330.555C412.053 330.553 412.049 330.552 412.044 330.55C412.041 330.549 412.039 330.548 412.036 330.547C411.706 330.446 411.392 330.318 411.095 330.169C408.516 329.747 404.142 328.198 400.706 325.985C403.815 329.773 411.032 332.614 414.672 333.21C414.97 333.36 415.284 333.486 415.614 333.589C415.617 333.589 415.619 333.59 415.622 333.591C415.627 333.592 415.631 333.594 415.636 333.595C415.656 333.602 415.677 333.605 415.698 333.609C415.716 333.614 415.734 333.619 415.754 333.622C415.794 333.628 415.834 333.632 415.873 333.632C415.876 333.632 415.878 333.632 415.881 333.632H415.882C415.884 333.632 415.886 333.632 415.888 333.632C415.928 333.632 415.968 333.628 416.009 333.622C416.027 333.619 416.046 333.614 416.065 333.609C416.085 333.605 416.106 333.602 416.126 333.595C416.131 333.594 416.136 333.592 416.14 333.591C416.143 333.59 416.146 333.589 416.148 333.589C416.479 333.486 416.793 333.36 417.089 333.21C421.809 332.437 432.539 327.893 432.539 322.403C432.539 318.22 430.187 314.586 426.734 312.751Z" fill="#610012"/>
<path d="M408.69 301.798C409.581 301.798 410.304 301.075 410.304 300.184C410.304 299.292 409.581 298.569 408.69 298.569C407.798 298.569 407.075 299.292 407.075 300.184C407.075 301.075 407.798 301.798 408.69 301.798Z" fill="#FFDA44"/>
<path d="M422.548 301.559C423.44 301.559 424.163 300.837 424.163 299.945C424.163 299.053 423.44 298.33 422.548 298.33C421.657 298.33 420.934 299.053 420.934 299.945C420.934 300.837 421.657 301.559 422.548 301.559Z" fill="#FFDA44"/>
<path d="M425.83 330.871C429.2 329.071 433.217 326.141 433.217 322.403C433.217 315.915 427.938 310.636 421.45 310.636H418.95L422.458 302.399C422.488 302.401 422.518 302.402 422.548 302.402C423.903 302.402 425.005 301.299 425.005 299.944C425.005 298.59 423.903 297.487 422.548 297.487C421.193 297.487 420.091 298.59 420.091 299.944C420.091 300.664 420.402 301.313 420.897 301.763L417.118 310.636H416.567V299.736C417.508 299.392 418.181 298.487 418.181 297.428C418.181 296.073 417.079 294.971 415.724 294.971C414.369 294.971 413.267 296.073 413.267 297.428C413.267 298.487 413.94 299.392 414.881 299.736V310.636H414.314L410.547 301.79C410.921 301.359 411.148 300.797 411.148 300.184C411.148 298.828 410.045 297.726 408.69 297.726C407.335 297.726 406.233 298.828 406.233 300.184C406.233 301.539 407.335 302.641 408.69 302.641C408.818 302.641 408.943 302.631 409.066 302.613L412.482 310.636H409.982C403.494 310.636 398.216 315.915 398.216 322.403C398.216 326.141 402.233 329.071 405.603 330.871C408.413 332.371 411.457 333.432 413.653 333.901V344.767C413.607 344.656 413.561 344.543 413.512 344.429C411.558 339.841 408.507 336.267 404.69 334.094C404.437 333.95 404.127 333.947 403.871 334.086C403.615 334.225 403.449 334.487 403.431 334.777C403.426 334.879 403.298 337.325 404.557 340.626C405.706 343.64 408.286 347.988 414.049 351.591C414.053 351.593 414.057 351.595 414.061 351.597C414.089 351.614 414.117 351.63 414.147 351.643C414.15 351.645 414.155 351.647 414.159 351.649C414.192 351.663 414.225 351.675 414.26 351.685C414.266 351.687 414.273 351.689 414.279 351.69C414.307 351.698 414.336 351.704 414.365 351.708C414.374 351.709 414.382 351.711 414.391 351.713C414.425 351.717 414.46 351.719 414.497 351.719H417.063C417.099 351.719 417.134 351.717 417.169 351.713C417.177 351.711 417.186 351.71 417.195 351.708C417.224 351.704 417.252 351.698 417.28 351.69C417.287 351.689 417.293 351.688 417.3 351.685C417.335 351.675 417.368 351.663 417.401 351.649C417.405 351.647 417.409 351.645 417.413 351.643C417.442 351.63 417.471 351.614 417.499 351.597C417.502 351.595 417.507 351.593 417.51 351.592C423.274 347.988 425.853 343.64 427.003 340.627C428.262 337.325 428.134 334.879 428.128 334.777C428.111 334.487 427.945 334.225 427.689 334.086C427.432 333.947 427.123 333.95 426.87 334.094C423.053 336.267 420.002 339.841 418.047 344.43C417.999 344.544 417.953 344.656 417.906 344.767V333.874C420.092 333.392 423.074 332.343 425.83 330.871ZM422.548 299.173C422.974 299.173 423.32 299.519 423.32 299.944C423.32 300.37 422.974 300.716 422.548 300.716C422.123 300.716 421.776 300.37 421.776 299.944C421.776 299.519 422.123 299.173 422.548 299.173ZM407.919 300.184C407.919 299.758 408.265 299.412 408.69 299.412C409.116 299.412 409.462 299.758 409.462 300.184C409.462 300.609 409.116 300.956 408.69 300.956C408.265 300.956 407.919 300.609 407.919 300.184ZM406.164 340.109C405.594 338.638 405.331 337.349 405.211 336.419C408.763 338.92 410.815 342.416 411.941 345.043C412.596 346.571 413.015 347.974 413.275 349.032C409.102 345.964 407.11 342.552 406.164 340.109ZM419.618 345.043C420.744 342.416 422.797 338.92 426.349 336.42C426.006 339.022 424.529 344.448 418.284 349.032C418.544 347.975 418.963 346.572 419.618 345.043ZM415.716 312.322C421.275 312.322 425.797 316.844 425.797 322.403C425.797 325.701 423.426 328.26 422.012 329.492C421.106 330.282 420.086 330.963 419.086 331.476C421.742 328.361 422.191 323.279 422.213 323.001C422.251 322.537 421.906 322.131 421.442 322.093C420.978 322.056 420.571 322.4 420.533 322.864C420.527 322.935 419.957 329.333 416.559 331.481V321.328C416.559 320.863 416.182 320.485 415.716 320.485C415.251 320.485 414.874 320.863 414.874 321.328V331.481C411.481 329.336 410.908 322.954 410.9 322.864C410.862 322.4 410.456 322.054 409.992 322.093C409.528 322.13 409.182 322.537 409.22 323.001C409.243 323.277 409.683 328.265 412.274 331.388C411.389 330.916 410.444 330.287 409.515 329.488C408.066 328.244 405.635 325.669 405.635 322.403C405.635 316.844 410.158 312.322 415.716 312.322ZM431.531 322.403C431.531 325.459 427.462 328.088 425.035 329.384C424.709 329.558 424.379 329.727 424.048 329.888C426.271 327.621 427.483 325 427.483 322.403C427.483 318.135 425.199 314.391 421.79 312.328C427.192 312.507 431.531 316.957 431.531 322.403ZM415.724 296.656C416.15 296.656 416.496 297.003 416.496 297.428C416.496 297.854 416.15 298.2 415.724 298.2C415.299 298.2 414.952 297.854 414.952 297.428C414.952 297.003 415.299 296.656 415.724 296.656ZM399.901 322.403C399.901 316.957 404.241 312.507 409.643 312.328C406.234 314.391 403.95 318.135 403.95 322.403C403.95 325.716 405.93 328.359 407.551 329.968C407.164 329.781 406.778 329.587 406.397 329.384C403.971 328.088 399.901 325.459 399.901 322.403ZM416.221 350.034H415.339V334.156C415.473 334.165 415.599 334.17 415.716 334.17C415.777 334.17 415.84 334.169 415.906 334.166C415.951 334.165 415.996 334.162 416.041 334.159C416.066 334.158 416.089 334.157 416.114 334.155C416.127 334.154 416.139 334.153 416.152 334.152C416.174 334.15 416.198 334.148 416.221 334.146V350.034Z" fill="black"/>
</g>
</g>
<path d="M1.96506 367.562C1.96506 348.615 -8.85788 353.873 -11.3994 347.604C-13.9409 341.334 -0.759434 338.861 -3.97906 329.541C-7.19806 320.222 -15.5787 325.397 -18.1202 318.62C-20.6617 311.842 -7.0459 305.066 -11.9596 298.457C-16.8731 291.85 -24.6366 299.755 -27.3474 292.638C-30.0581 285.521 -18.5367 279.083 -25.9918 272.983C-30.1526 269.579 -35.3195 272.255 -38.1901 275.278C-40.1595 277.353 -43.6349 276.662 -44.6704 273.995C-46.7343 268.681 -50.2225 262.583 -55.135 263.664C-69.3025 266.781 -53.9489 283.997 -64.7928 287.385C-75.6368 290.774 -71.5702 301.449 -66.3179 302.465C-61.0654 303.483 -55.3045 309.752 -61.5736 315.343C-69.6842 322.577 -66.9696 328.948 -62.59 332.118C-58.9426 334.758 -55.3043 338.896 -63.6065 346.351C-73.1827 354.95 -56.3207 367.561 -56.3207 367.561L1.96506 367.562Z" fill="#7CD8A4"/>
<g opacity="0.19">
<path d="M-11.9332 347.604C-14.4747 341.334 -1.29323 338.861 -4.51285 329.541C-7.73185 320.223 -16.1125 325.398 -18.654 318.62C-21.1955 311.843 -7.57969 305.066 -12.4934 298.458C-17.4069 291.85 -25.1703 299.755 -27.8812 292.639C-30.5919 285.522 -19.0704 279.083 -26.5255 272.983C-30.6864 269.579 -35.8532 272.255 -38.7239 275.279C-39.1223 275.699 -39.5826 276.003 -40.0715 276.203C-38.5416 281.346 -46.0084 286.761 -43.7696 292.638C-41.0586 299.755 -33.2953 291.85 -28.3818 298.457C-23.4683 305.066 -37.084 311.843 -34.5425 318.62C-32.0009 325.397 -23.6206 320.222 -20.4011 329.541C-17.1819 338.861 -30.3631 341.334 -27.8217 347.604C-25.2801 353.873 -14.4571 348.614 -14.4571 367.562H1.43126C1.43126 348.614 -9.39167 353.873 -11.9332 347.604Z" fill="#266659"/>
</g>
<path d="M1.84657 357.009C1.80417 356.865 1.74368 356.728 1.66324 356.602C-0.30982 352.382 -3.44464 351.035 -5.98828 349.943C-8.08855 349.041 -9.30619 348.459 -9.89966 346.996C-10.5801 345.317 -9.5333 344.045 -6.98167 341.543C-4.18858 338.803 -0.36345 335.051 -2.44938 329.013C-4.47731 323.142 -8.42779 322.167 -11.6018 321.385C-14.3193 320.715 -15.7758 320.263 -16.605 318.052C-17.4842 315.707 -15.4683 312.981 -13.3341 310.095C-10.6582 306.477 -7.32839 301.975 -10.6612 297.492C-13.6328 293.496 -17.6206 293.856 -20.5321 294.118C-23.64 294.398 -24.9376 294.419 -25.8353 292.062C-26.7625 289.628 -25.4607 287.095 -24.082 284.414C-22.1544 280.663 -19.7555 275.995 -24.9674 271.731C-29.6666 267.886 -35.5844 270.183 -39.3647 274.165C-39.9123 274.741 -40.6772 274.982 -41.4631 274.828C-42.2533 274.672 -42.8723 274.155 -43.1623 273.409C-47.3127 262.721 -52.1529 261.352 -55.4829 262.083C-59.4408 262.955 -61.8964 265.006 -62.7816 268.181C-63.5135 270.807 -63.0866 273.767 -62.6737 276.629C-61.8677 282.217 -61.8702 284.777 -65.2757 285.841C-70.5079 287.476 -73.4824 291.118 -73.2329 295.581C-73.0048 299.66 -70.1027 303.383 -66.6254 304.056C-63.8713 304.589 -61.2269 306.776 -60.6052 309.036C-60.3102 310.108 -60.4581 311.17 -61.0413 312.209C-61.3109 312.575 -61.4867 312.852 -61.5772 313.004C-61.8764 313.384 -62.2325 313.762 -62.651 314.136C-66.6521 317.704 -68.5842 321.414 -68.3931 325.16C-68.2333 328.298 -66.4641 331.312 -63.5392 333.43C-61.3026 335.048 -60.2692 336.45 -60.1889 337.974C-60.0844 339.959 -61.5982 342.372 -64.6883 345.147C-67.1236 347.334 -68.2911 349.945 -68.1583 352.909C-67.7998 360.91 -57.7196 368.537 -57.2906 368.858C-57.2889 368.859 -57.2866 368.86 -57.2848 368.861C-57.2814 368.864 -57.2783 368.867 -57.2749 368.869C-57.2395 368.895 -57.2018 368.914 -57.1651 368.937C-57.1308 368.958 -57.0979 368.982 -57.0621 369C-57.0089 369.027 -56.9536 369.048 -56.8985 369.07C-56.8744 369.078 -56.8511 369.091 -56.8266 369.099C-56.7573 369.122 -56.6869 369.138 -56.6163 369.151C-56.6035 369.153 -56.5911 369.157 -56.5786 369.159C-56.4935 369.173 -56.408 369.181 -56.3226 369.181C-56.3213 369.181 -56.3203 369.181 -56.3188 369.181H-35.0132H-28.1401H-24.1581C-24.1566 369.181 -24.1552 369.181 -24.1535 369.181C-24.1522 369.181 -24.1508 369.181 -24.1491 369.181H1.96506C2.85929 369.181 3.58391 368.456 3.58391 367.562C3.58391 362.827 2.90357 359.46 1.84657 357.009ZM-7.26541 352.918C-5.16389 353.82 -3.02309 354.74 -1.54891 357.387C-4.09816 360.645 -15.6612 365.08 -24.2356 365.942H-26.4271C-26.3224 363.491 -26.2291 358.591 -26.6655 351.973C-26.4466 351.951 -26.2281 351.93 -26.0163 351.91C-19.2611 351.255 -15.8228 350.922 -12.5642 348.916C-11.3596 351.154 -9.28274 352.052 -7.26541 352.918ZM-9.24856 339.231C-11.0877 341.035 -13.1103 343.02 -13.3349 345.536C-13.3682 345.557 -13.4013 345.577 -13.4335 345.601C-16.3216 347.718 -19.0464 347.983 -26.3286 348.688C-26.5186 348.707 -26.7155 348.725 -26.9114 348.745C-26.9998 347.716 -27.0999 346.658 -27.2156 345.566C-27.5571 342.335 -28.0489 338.652 -28.7496 334.63C-27.9928 334.509 -27.2634 334.393 -26.563 334.282C-16.7118 332.722 -11.8349 331.947 -7.18247 327.041C-6.53331 327.77 -5.96833 328.741 -5.50874 330.07C-4.0913 334.173 -6.48092 336.517 -9.24856 339.231ZM-12.3763 324.529C-11.5234 324.739 -10.705 324.942 -9.93695 325.228C-13.7166 328.968 -17.7984 329.617 -27.0689 331.085C-27.794 331.2 -28.55 331.319 -29.3358 331.445C-30.0541 327.748 -30.9504 323.808 -32.0655 319.701C-31.4242 319.61 -30.8048 319.526 -30.1976 319.443C-26.0894 318.881 -22.8855 318.442 -20.058 316.907C-20.0534 317.657 -19.9243 318.418 -19.6354 319.189C-18.1686 323.101 -15.0912 323.859 -12.3763 324.529ZM-13.2584 299.424C-11.4499 301.857 -13.098 304.332 -15.9363 308.17C-16.579 309.039 -17.2437 309.939 -17.8474 310.866C-17.973 310.95 -18.0892 311.052 -18.1908 311.174C-21.3562 314.968 -24.4574 315.391 -30.6359 316.235C-31.3526 316.333 -32.1312 316.44 -32.9535 316.558C-34.0634 312.777 -35.3605 308.876 -36.8791 304.909C-27.2366 303.37 -21.3444 302.373 -16.9861 297.254C-15.599 297.408 -14.3498 297.957 -13.2584 299.424ZM-64.31 288.931C-57.9161 286.933 -58.7774 280.964 -59.4691 276.167C-60.3523 270.044 -60.5704 266.517 -54.787 265.245C-50.7936 264.367 -47.6797 270.718 -46.1791 274.582C-45.4899 276.357 -43.9606 277.636 -42.088 278.005C-40.2196 278.372 -38.3233 277.77 -37.0163 276.393C-34.9646 274.232 -30.5496 271.346 -27.0168 274.236C-23.9727 276.727 -24.9039 278.932 -26.9609 282.933C-27.2062 283.411 -27.4567 283.899 -27.6993 284.396C-30.0825 287.161 -32.5282 287.355 -37.3211 287.734C-40.7004 288 -44.9061 288.332 -50.539 289.748C-60.7239 292.308 -65.8294 297.492 -67.7739 299.975C-68.9929 298.937 -69.9004 297.186 -70.0001 295.401C-70.1666 292.427 -68.1457 290.13 -64.31 288.931ZM-64.6242 301.248C-62.6253 298.976 -58.1095 294.989 -49.7501 292.887C-44.3807 291.538 -40.3252 291.218 -37.0664 290.961C-34.0782 290.725 -31.582 290.528 -29.3576 289.583C-29.4588 290.756 -29.335 291.967 -28.8596 293.215C-27.3966 297.055 -24.6416 297.561 -22.0345 297.47C-25.5248 299.818 -30.3395 300.587 -37.7472 301.769L-38.0996 301.826C-38.8548 299.978 -39.6567 298.121 -40.5125 296.257C-41.641 293.801 -44.5579 292.721 -47.015 293.848C-49.4719 294.977 -50.5526 297.894 -49.4239 300.351C-48.9016 301.489 -48.4008 302.624 -47.9187 303.756C-52.1774 305.038 -55.2536 306.845 -57.3996 308.531C-57.4262 308.413 -57.4504 308.295 -57.4832 308.176C-58.4185 304.779 -61.572 302.283 -64.6242 301.248ZM-65.1599 324.996C-65.2965 322.315 -63.6836 319.395 -60.496 316.552C-59.9184 316.036 -59.4196 315.498 -58.9921 314.942C-58.9552 314.898 -58.9209 314.852 -58.888 314.805C-58.7116 314.567 -58.5457 314.328 -58.3969 314.085C-57.2975 312.62 -53.8915 308.863 -46.6806 306.766C-45.1139 310.706 -43.7815 314.589 -42.6487 318.352C-43.2676 318.495 -43.8867 318.645 -44.502 318.8C-56.9726 321.935 -61.0604 327.816 -62.2706 330.312C-63.4976 329.273 -65.0329 327.491 -65.1599 324.996ZM-62.5251 347.556C-58.6169 344.046 -56.795 340.856 -56.9559 337.804C-57.075 335.54 -58.2866 333.783 -59.6535 332.452C-59.6369 332.406 -59.617 332.361 -59.6042 332.313C-59.5841 332.245 -57.4407 325.389 -43.7128 321.939C-43.0605 321.775 -42.404 321.618 -41.7478 321.467C-40.5513 325.778 -39.6146 329.901 -38.8801 333.738C-49.5693 336.811 -60.9426 350.557 -64.4583 355.084C-64.7229 354.304 -64.8896 353.526 -64.924 352.764C-65.0126 350.788 -64.2279 349.085 -62.5251 347.556ZM-52.8352 365.943C-49.9212 362.777 -44.2018 357.431 -36.4032 354.233C-36.1697 359.695 -36.3585 363.847 -36.5035 365.943H-52.8352ZM-62.8492 358.317C-61.7852 356.886 -49.2907 340.337 -38.3001 336.941C-37.7099 340.412 -37.2878 343.601 -36.9862 346.424C-36.823 347.951 -36.6956 349.421 -36.5963 350.828C-47.0156 354.769 -54.0316 362.238 -56.5763 365.281C-58.425 363.711 -61.0386 361.142 -62.8492 358.317ZM-33.2596 365.943C-33.0959 363.448 -32.9022 358.577 -33.2596 352.294C-33.1891 352.004 -33.1963 351.693 -33.2998 351.39C-33.305 351.375 -33.3117 351.361 -33.3169 351.346C-33.4244 349.677 -33.5709 347.917 -33.7669 346.079C-34.9989 334.549 -38.205 317.021 -46.4825 299C-46.8658 298.166 -46.4986 297.174 -45.664 296.791C-44.829 296.408 -43.8379 296.775 -43.4543 297.61C-34.9575 316.109 -31.684 334.084 -30.4342 345.906C-29.3913 355.768 -29.5319 362.974 -29.6656 365.943H-33.2596ZM-10.3803 365.943C-6.33937 364.494 -2.62773 362.678 -0.319175 360.698C0.0194376 362.128 0.243305 363.847 0.31876 365.943H-10.3803Z" fill="black"/>
<mask id="mask9_1_2" style="mask-type:luminance" maskUnits="userSpaceOnUse" x="-66" y="259" width="132" height="136">
<path d="M65.9509 305.399L-13.6772 259.425L-65.1675 348.611L14.4606 394.586L65.9509 305.399Z" fill="white"/>
</mask>
<g mask="url(#mask9_1_2)">
<path d="M2.74142 386.024C11.8372 370.27 1.27785 370.003 2.40032 363.701C3.52342 357.399 14.4968 360.992 16.5803 351.863C18.6637 342.734 9.95768 343.446 11.3246 336.721C12.6915 329.996 26.0527 330.197 25.5769 322.597C25.1011 314.996 15.5432 318.241 16.9469 311.162C18.3506 304.083 29.995 303.668 27.3884 295.401C25.9336 290.786 20.8132 290.796 17.2307 292.08C14.7725 292.962 12.5244 290.897 13.0357 288.236C14.0547 282.932 14.3921 276.367 10.2264 275.16C-1.78775 271.679 1.34645 292.575 -8.33113 290.744C-18.0084 288.914 -20.1137 299.533 -16.7025 302.629C-13.2911 305.726 -12.0238 313.408 -19.3622 315.37C-28.856 317.909 -29.8992 324.37 -28.1693 328.883C-26.7289 332.641 -26.0139 337.641 -35.7564 340.282C-46.9937 343.327 -40.5294 361.041 -40.5294 361.041L2.74205 386.024L2.74142 386.024Z" fill="#7CD8A4"/>
<path d="M-8.80824 327.036C-7.74994 327.306 -6.75531 327.581 -5.81804 327.858L-0.427683 329.654C5.78146 331.948 9.64151 333.861 14.1875 332.751C18.4991 329.611 25.9329 328.301 25.5762 322.597C25.4197 320.094 24.2779 318.767 22.8674 317.86C17.4215 319.885 11.2772 318.257 2.9335 315.255L-3.09854 313.288C-8.21514 312.063 -12.561 312.444 -15.3957 313.016C-16.2555 314.048 -17.5446 314.885 -19.3625 315.371C-28.8563 317.909 -29.8996 324.37 -28.1698 328.883C-28.0617 329.165 -27.9577 329.455 -27.862 329.749C-26.5419 328.648 -20.2488 324.125 -8.80824 327.036Z" fill="#3EAC92"/>
<path d="M1.07081 300.28C11.203 302.858 15.093 306.664 19.5461 306.867C23.2914 303.382 29.3415 301.596 27.3878 295.401C25.9336 290.786 20.8126 290.797 17.23 292.081C14.7718 292.962 12.5238 290.897 13.0351 288.236C14.0541 282.933 14.3921 276.367 10.2258 275.16C-1.78837 271.679 1.34582 292.575 -8.33176 290.745C-17.0235 289.101 -19.6059 297.499 -17.5701 301.47C-15.0187 300.254 -8.37167 297.876 1.07081 300.28Z" fill="#3EAC92"/>
<path d="M-24.7108 370.174C-24.6665 370.109 -19.7257 363.19 -14.7511 352.299C-10.1785 342.289 -4.20793 326.509 -1.72976 308.181C-1.5009 306.486 -0.0279669 305.174 1.55908 305.251C3.14676 305.328 4.24803 306.765 4.01854 308.46C1.41877 327.689 -4.844 344.207 -9.63982 354.678C-14.8508 366.056 -19.4167 372.837 -19.6086 373.12L-24.7108 370.174Z" fill="#266659"/>
<g opacity="0.19">
<path d="M0.843824 281.197C0.332476 283.858 2.58054 285.923 5.03813 285.042C7.55558 284.139 10.8301 283.869 13.0607 285.386C13.65 280.736 13.3276 275.945 9.82984 274.932C5.3281 273.627 2.95345 275.745 1.23419 278.808C1.12631 279.617 0.992863 280.421 0.843824 281.197Z" fill="#266659"/>
<path d="M2.00434 363.473C3.12681 357.17 14.1002 360.764 16.1837 351.635C18.2677 342.506 9.56107 343.217 10.928 336.492C12.2949 329.767 25.6561 329.969 25.1803 322.369C24.7051 314.767 15.1466 318.013 16.5503 310.934C17.954 303.855 29.5984 303.439 26.9918 295.172C25.537 290.558 20.4166 290.568 16.8341 291.852C16.3371 292.03 15.8488 292.086 15.3898 292.042C14.0566 296.975 5.91429 298.277 4.75502 304.123C3.35131 311.203 12.9092 307.957 13.385 315.557C13.8608 323.159 0.499602 322.957 -0.867319 329.682C-2.23424 336.407 6.47178 335.695 4.38835 344.824C2.30491 353.953 -8.66856 350.359 -9.79128 356.662C-10.914 362.964 -0.354721 363.231 -9.45017 378.985L2.34545 385.795C11.4406 370.041 0.881246 369.775 2.00434 363.473Z" fill="#266659"/>
</g>
<path d="M7.71896 377.2C7.757 377.062 7.77758 376.921 7.77883 376.782C8.33944 372.428 6.65885 369.964 5.29442 367.965C4.16821 366.315 3.54336 365.31 3.8059 363.838C4.10647 362.151 5.49397 361.542 8.5895 360.555C11.9787 359.474 16.6195 357.994 17.9696 352.079C19.2823 346.328 16.8172 343.825 14.8361 341.814C13.1405 340.092 12.2762 339.091 12.7221 336.898C13.1948 334.571 16.0003 333.169 18.9699 331.684C22.6934 329.823 27.3267 327.506 27.0043 322.35C26.7168 317.754 23.5832 316.344 21.2959 315.314C18.8545 314.215 17.8811 313.676 18.3456 311.331C18.8258 308.91 21.0084 307.362 23.3188 305.723C26.5509 303.431 30.5725 300.578 28.7503 294.798C27.1072 289.587 21.6114 288.96 16.8933 290.651C16.2098 290.896 15.5264 290.768 15.0169 290.303C14.5049 289.835 14.2935 289.14 14.4363 288.395C16.4861 277.729 13.5502 274.516 10.7266 273.697C7.37037 272.724 4.56232 273.378 2.38098 275.638C0.576923 277.508 -0.526842 280.152 -1.59444 282.709C-3.67849 287.701 -4.90885 289.828 -7.94825 289.254C-12.6175 288.37 -16.5737 290.123 -18.5315 293.942C-20.3201 297.431 -19.9525 301.769 -17.694 303.82C-15.9053 305.444 -14.9923 308.396 -15.6156 310.542C-15.9113 311.559 -16.5305 312.378 -17.4623 312.993C-17.8385 313.182 -18.102 313.337 -18.2417 313.423C-18.6466 313.612 -19.0923 313.773 -19.5824 313.905C-24.2658 315.157 -27.4809 317.413 -29.1378 320.611C-30.5255 323.288 -30.6588 326.552 -29.5038 329.567C-28.6203 331.871 -28.526 333.48 -29.1982 334.782C-30.0732 336.477 -32.3556 337.834 -35.9817 338.817C-38.8394 339.591 -40.9597 341.262 -42.2839 343.783C-45.8584 350.589 -42.0365 361.253 -41.872 361.703C-41.8713 361.705 -41.87 361.707 -41.8694 361.708C-41.8681 361.712 -41.8672 361.716 -41.8659 361.72C-41.852 361.756 -41.8332 361.788 -41.8167 361.823C-41.8014 361.855 -41.7883 361.889 -41.7706 361.919C-41.7442 361.965 -41.7131 362.006 -41.6824 362.047C-41.6689 362.065 -41.6575 362.085 -41.6432 362.103C-41.6027 362.151 -41.558 362.194 -41.5119 362.235C-41.5036 362.243 -41.4966 362.252 -41.4882 362.259C-41.4317 362.307 -41.3717 362.349 -41.3082 362.386C-41.3073 362.387 -41.3064 362.387 -41.3054 362.388L-25.4881 371.52L-20.3856 374.466L-17.4293 376.173C-17.4283 376.174 -17.4273 376.174 -17.426 376.175C-17.4251 376.176 -17.4239 376.176 -17.4227 376.177L1.96442 387.37C2.62792 387.754 3.51406 387.462 3.94371 386.718C6.21609 382.781 7.32734 379.69 7.71896 377.2ZM2.91852 369.891C4.04536 371.542 5.19277 373.225 5.01692 376.058C1.56033 377.674 -9.15279 376.405 -15.9325 373.447L-17.5595 372.508C-16.3051 370.515 -13.8836 366.48 -11.0305 360.79C-10.8577 360.867 -10.6853 360.943 -10.5182 361.016C-5.18884 363.367 -2.4762 364.564 0.906177 364.293C0.725958 366.671 1.83658 368.307 2.91852 369.891ZM8.01641 357.662C5.78519 358.373 3.33072 359.157 1.95631 361.152C1.92139 361.155 1.88709 361.158 1.85155 361.164C-1.30883 361.687 -3.45837 360.738 -9.20349 358.204C-9.3534 358.138 -9.50874 358.069 -9.66333 358.001C-9.23535 357.108 -8.80177 356.185 -8.36294 355.227C-7.06587 352.395 -5.66277 349.121 -4.2522 345.477C-3.63235 345.7 -3.03557 345.917 -2.46186 346.125C5.6006 349.05 9.59286 350.496 15.4017 348.412C15.5339 349.296 15.4877 350.345 15.1903 351.647C14.2729 355.666 11.3739 356.591 8.01641 357.662ZM12.7526 344.096C13.2845 344.636 13.7947 345.155 14.2274 345.723C9.62654 347.212 6.28469 346.002 -1.3026 343.249C-1.89626 343.034 -2.51487 342.81 -3.15842 342.577C-1.91746 339.195 -0.691473 335.535 0.452825 331.642C0.97228 331.842 1.47303 332.036 1.96317 332.228C5.28257 333.522 7.87236 334.53 10.7078 334.466C10.3512 335.091 10.0818 335.78 9.92649 336.544C9.13764 340.426 11.0583 342.376 12.7526 344.096ZM24.1488 322.844C24.3234 325.641 21.912 326.993 17.9621 328.968C17.0679 329.415 16.1425 329.879 15.2489 330.391C15.1154 330.407 14.9801 330.442 14.846 330.5C10.6754 332.296 8.16982 331.32 3.17794 329.373C2.59862 329.148 1.96941 328.902 1.30216 328.648C2.29306 325.029 3.20288 321.229 3.97988 317.28C11.8771 320.133 16.7299 321.83 22.4233 319.441C23.3787 320.164 24.0428 321.156 24.1488 322.844ZM-8.71459 292.236C-3.00875 293.316 -0.782517 287.983 1.00658 283.698C3.29018 278.229 4.82111 275.203 9.72507 276.624C13.1118 277.606 12.3747 284.221 11.6339 288.077C11.2934 289.848 11.8147 291.567 13.0283 292.677C14.2387 293.783 15.9355 294.095 17.5668 293.511C20.1273 292.593 24.7905 292.085 26.0259 296.003C27.0903 299.379 25.3405 300.813 21.8927 303.259C21.4811 303.55 21.0608 303.849 20.6423 304.158C17.5456 305.436 15.6361 304.549 11.8964 302.809C9.25986 301.582 5.97851 300.056 1.11696 298.818C-7.67387 296.582 -13.9525 298.704 -16.5879 299.935C-16.9946 298.549 -16.8278 296.704 -16.0448 295.177C-14.741 292.633 -12.1377 291.589 -8.71459 292.236ZM-14.8607 302.343C-12.2856 301.31 -7.01972 299.932 0.195279 301.767C4.82922 302.946 7.99396 304.419 10.5364 305.602C12.868 306.687 14.8161 307.593 16.9207 307.76C16.2828 308.692 15.7933 309.752 15.5476 310.993C14.7899 314.814 16.5921 316.416 18.5714 317.457C14.8529 317.913 10.9093 316.489 4.84294 314.297L4.55421 314.192C4.88035 312.333 5.17656 310.445 5.43535 308.529C5.77708 306.003 4.13017 303.854 1.76424 303.739C-0.601053 303.624 -2.80422 305.586 -3.14532 308.113C-3.30372 309.283 -3.47707 310.441 -3.66228 311.589C-7.4394 310.83 -10.5906 311.013 -12.9935 311.496C-12.9563 311.386 -12.9177 311.278 -12.8851 311.165C-11.9487 307.939 -13.0916 304.512 -14.8607 302.343ZM-26.6583 321.86C-25.4727 319.572 -22.8734 317.835 -19.1422 316.837C-18.4663 316.657 -17.8371 316.422 -17.253 316.144C-17.2048 316.123 -17.1571 316.099 -17.1098 316.074C-16.865 315.952 -16.6269 315.824 -16.3998 315.686C-14.8804 314.939 -10.5483 313.276 -4.1886 314.623C-4.91696 318.57 -5.79123 322.37 -6.75656 325.984C-7.28537 325.838 -7.81667 325.697 -8.34735 325.562C-19.1104 322.823 -24.9686 325.961 -27.0654 327.518C-27.4776 326.128 -27.7619 323.989 -26.6583 321.86ZM-35.532 341.747C-30.9458 340.504 -28.062 338.633 -26.7162 336.026C-25.7177 334.092 -25.774 332.112 -26.1495 330.419C-26.1152 330.388 -26.0792 330.36 -26.0466 330.325C-25.9987 330.277 -21.1167 325.495 -9.26872 328.511C-8.70567 328.654 -8.14344 328.805 -7.58345 328.961C-8.76473 333.058 -10.0483 336.887 -11.3452 340.393C-20.7556 338.366 -35.798 344.921 -40.5811 347.178C-40.4033 346.416 -40.1535 345.698 -39.8132 345.049C-38.9304 343.369 -37.53 342.289 -35.532 341.747ZM-37.165 361.189C-33.482 359.806 -26.6694 357.812 -19.3448 358.496C-21.7936 363.138 -23.9269 366.509 -25.0404 368.19L-37.165 361.189ZM-40.9388 350.556C-39.4618 349.822 -22.2414 341.417 -12.4521 343.305C-13.6803 346.444 -14.8977 349.277 -16.0285 351.752C-16.6405 353.092 -17.2517 354.369 -17.8536 355.582C-27.4804 354.392 -36.2748 357.596 -39.6247 359.036C-40.2438 356.938 -40.9505 353.681 -40.9388 350.556ZM-22.6321 369.58C-21.3131 367.576 -18.8309 363.609 -16.0799 358.231C-15.8887 358.02 -15.7443 357.758 -15.6757 357.462C-15.6724 357.447 -15.6707 357.433 -15.6676 357.418C-14.9461 355.984 -14.2098 354.458 -13.4734 352.846C-8.8529 342.731 -2.81918 326.782 -0.312953 308.25C-0.196964 307.392 0.551352 306.725 1.35517 306.764C2.15836 306.804 2.71835 307.533 2.60236 308.392C0.0300265 327.415 -6.16851 343.765 -10.9158 354.13C-14.876 362.778 -18.4393 368.708 -19.964 371.121L-22.6321 369.58ZM-5.64656 379.387C-1.95113 379.914 1.6757 379.995 4.34032 379.339C3.90567 380.672 3.24653 382.198 2.29617 383.973L-5.64656 379.387Z" fill="black"/>
</g>
</g>
</g>
</g>
<defs>
<clipPath id="clip0_1_2">
<rect width="523" height="338" fill="white"/>
</clipPath>
<clipPath id="clip1_1_2">
<rect width="666" height="449" fill="white" transform="translate(-71 -111)"/>
</clipPath>
</defs>
</svg>
